<svg xmlns="http://www.w3.org/2000/svg" viewBox="0 0 1281 486"><defs><style>.cls-1{fill:#333;}.cls-2{fill:#727170;}.cls-3,.cls-5,.cls-6{fill:none;stroke-miterlimit:10;}.cls-3{stroke:#00b4be;stroke-width:2px;}.cls-4{fill:#f5821b;}.cls-5{stroke:#f5821b;stroke-width:3px;}.cls-6{stroke:#dfdfdf;}.cls-7{font-size:6px;fill:#dfdfdf;font-family:OpenSans, OpenSans;}.cls-8{letter-spacing:0.02em;}</style></defs><title>Asset 2</title><g id="Layer_2" data-name="Layer 2"><g id="Layer_1-2" data-name="Layer 1"><rect class="cls-1" width="1281" height="486"/><g id="Page-1"><path id="Fill-1" class="cls-2" d="M556.1,99c-.08-.3-.49-.3-.49-.73,2.21-2.37,9.67-2.49,6.64-7.65,1.39-1.46,2.79-2.31,1.39-4.19,1.07-1,3.12-1.4,5.17-1.76,1.48-3.34,3.77-6.07,4.26-10.08-1.64-1.82-6.15-1.46-5.17-5.22,3.61-1.58,5.9,1.88,7.54,1.7,1.15-.67,2.13-1.4,1.89-3.16a6.67,6.67,0,0,0-4.67-1c-.66-2.31-2.87-3.4-6.56-3.46,1.07-2.85,4.1-4.19,6.56-5.89.33-1.28-.74-1.46-.41-2.79,4.84-.91,10.74-2.25,10.74-5.59,4.92-1.15,10.25-1.88,11.72-5.59-4.18-2.31-16.15-1.94-19.27.73a9.64,9.64,0,0,1-4.26-.73c-3.44,1.94-8.44,4.74-12.22,5.22,2.21-2.13,4.18-4.37,6.64-6.32-2-1-4.92-1.46-7.05-2.43,1.15-.73,3.61-.55,3.77-2.13-5.57-.55-10.58-4.68-16.89-5.59-7.54-1-15.17,1-23.53-.3h-2.79c-6.64,4.74-25.66,1.76-34.84,3.46.57.79,1.8,1,1.89,2.13-1.39.67-2.3-.49-2.79.73.49,1.15,3.69,2.06,3.28,2.73-4.26-1.4-9.67-3.7-16-2.43-.82,2,3,2.43,2.38,3.16-3.61.61-5.41-2.06-8.44-2.43-7.46-1-15.58,3-23,3.16-.74.49-.49,1.7-1.39,2.13-4.92,1.82-11.07,3.7-16.89,5.59-1.48.49-4.76.12-4.67,2.13.49,1.34,4.1.43,6.07.73.08,1.4,1.56,1.82,1.89,3.16-7.87,2.79-18.94,2.25-24.43,7.35,1.8,2.13,7.3,1.52,9.84,3.16-.82.85-3.2.61-3.28,2.13,6.39,8.26,27.14,1.15,37.63,6.62,1.72.91,10.33,8.75,10.74,10.81.74,3.34-1.23,4.07-1.39,7.35,2,2.55,7.87,1.09,8.94-1,2.21,1.21,3.77,3,6.07,4.19-3,1.15-6.07,2.31-9.35.73-.25,1-2,.85-1.89,2.13,1.15,1.46,2.3.91.41,2.43,2,.55,3.12,1.64,5.66,1.76,2.21-.24,2.21-2.06,4.67-2.13.57,1.4.82,4.55,0,5.89a32.78,32.78,0,0,0-5.17.3c-4.26,3.52-1.64,6.74,0,10.08,3,5.83,11.64,12.51,15,18.16,6.39-.43,18.69,6,20.25-.73.41-1.94-1-2.37-1.39-4.19,3.2-2.61,7.79-4.25,6.64-10.08,4.18-3.83,12.46-2.06,17.38-4.49,3.94-2,4.35-5.77,8-7.65,14.84-.55,24.35-5,34.27-9-2.21-1.76-6.72-.12-9-1Z"/><path id="Fill-2" class="cls-2" d="M75,246.44v1c2,.79,3.2-1.46,6.64-.73.49-1.09.08-.79,0-2.13-2.62,1.15-3.53,1.7-6.64,1.82Z"/><path id="Fill-3" class="cls-2" d="M932,53.68a5.85,5.85,0,0,0,.41,2.79c5.66,2,12.3,5,19.27,4.86-.66-3.22,1.23-6.26.9-8-3.2-.18-7.71.55-8.94-1C944.46,50.4,946,50,945,47.36c-8.36-2-14,1.52-20.17,3.16-.16,1.76,1.07,2.43,1.89,3.46a17.76,17.76,0,0,0,5.25-.3Z"/><path id="Fill-4" class="cls-2" d="M668.83,60c2.79,2.61,8.36,3.1,11.23,5.59-.41.61-1.31.91-1,2.13,4.35.36,5.58,3,8.44,4.49,3-4.43,4.84-9.66,11.31-11.54.9.55,2.21,1,2.3,2.13.16,1.46-1.39,1.7-.9,3.46,3.44,1.34,11.31,1,12.22-1.7-3.2-1.46-7.3-2.25-8-5.59-3.2-1.34-9.35-.55-10.33-3.46,5.17.24,10.17,2.73,16.4,2.13,4.76-.55,8-4.07,12.71-3.83-4.43-2.55-11.72-2.19-17.87-2.79-9.35-.91-14.51.79-21.15,2.79-.74.73.08,2.55-.9,3.16-2.3,0,.49-2.85-1.39-2.43-1.89-1.21-3,1-4.67,1,0-2.79-5.58-1.4-8.94-1.76-.82,2.19,1.56,3.34.49,6.19Z"/><path id="Fill-5" class="cls-2" d="M314.08,54.71a19.45,19.45,0,0,1,4.67,1.4c3.61-2.43-5.08-5.89-4.67-1.4Z"/><path id="Fill-6" class="cls-2" d="M299.07,60c-.25,1.34,1.15,1.4,1.39,2.43,8-.79,12,1.4,16.89,2.79,2-1.7.49-3-.41-4.92-5.82-1-14.59-6.19-20.25-2.79,1.15,1.15,4.18,1,5.66,2.13a7.79,7.79,0,0,0-3.28.36Z"/><path id="Fill-7" class="cls-2" d="M950.77,63.76c5.49.73,14.92-.73,19.68-2.79-1.8-3.34-10.33-5.47-14-3.16,2.46,2.61-5.58,3-5.66,6Z"/><path id="Fill-8" class="cls-2" d="M286,63.09c.33-1.88-.16-3.1-1.39-3.83-4.67.49-10.58.06-12.22,2.79,3.69,1,10.66-.55,13.61,1Z"/><path id="Fill-9" class="cls-2" d="M331.95,62.73c-1.8-2.37-8.12-3.89-11.72-2.79a10.78,10.78,0,0,0,4.26,4.86c2-1,7,.12,7.46-2.06Z"/><path id="Fill-10" class="cls-2" d="M271.85,65.22c1.48,4.13,8.69,2.37,12.22.73.33-1.15-1.72-.55-1.89-1.4a11.12,11.12,0,0,0,3.28-1c-3-1.4-8.53.06-11.72.73-1.15-1-6.48-2.06-6.07.73,1.39.73,1.8.12,4.18.24Z"/><path id="Fill-11" class="cls-2" d="M338.1,65.22c-1.89-.55-10.49-1.46-11.31,1,3,.43,10.25,1.09,11.31-1Z"/><path id="Fill-12" class="cls-2" d="M348.43,67.65c1.72-2.61-6.07-3.28-6.07-.36,2.46-.24,3.61.55,6.07.36Z"/><path id="Fill-13" class="cls-2" d="M248.41,73.54c.41.67.66,1.4,1.39,1.76,3.61-1.28,7.87,1,11.23-1-.33,1-2.21.91-1.89,2.43,1.64,2.13,6.72,1.21,10.33,1-1,1.4.25,2.37,1,3.46,9.1.91,13.77-4.25,22.05-1.76,2.3-1,4.92-1.7,7.05-2.79a4.09,4.09,0,0,1,0-2.43c-2.46-1-5.49.24-8.44,0a3.52,3.52,0,0,1-1-4.49c-3-.24-4.59.55-7.54.3-.41.85-1.07,1.52-1,2.79,1.64.43,3.69.55,4.67,1.4-1,1-3.44.91-5.17,1.4-5.33-5.83-18-3.83-25.33-2.43-.33-1.7,1.31-2.13,2.3-2.79a5.68,5.68,0,0,0,4.67,1c1.8-.61,3.28-3.4,1.89-5.22-.41.36-3.94-1.21-4.26.73-9.51-1.15-9.84,4.55-17.87,4.49.33,1-.41,1.28-.41,2.13,1.48.67,4.84.36,6.31,0Z"/><path id="Fill-14" class="cls-2" d="M804.59,94.86v2.43c3.36.49,9.43,1.94,12.71.3-1.72-2.25-4.92-2.19-5.66-4.49-1.72-5.71,7.62-9.41,11.31-12.21,4.26-.49,6-2.79,9.35-3.83s8-1.15,12.22-2.13c2.79-.67,9.35-2.25,9.35-4.19.33-5.22-12.63-.18-14.59,0-2.79.3-5.41-.24-7.54,0-7.21.85-11,5-18.28,5.22a20.4,20.4,0,0,1-8.94,7.35c3.53,4.49-7.3,5.16-6.56,10.81,1.8.61,5,.06,6.64.73Z"/><path id="Fill-15" class="cls-2" d="M335.31,80.16c1.15-1,2.3-2,1.89-4.19-2.87-1.76-11.23.43-14.1-1.4a4.44,4.44,0,0,0-1-3.16c-3.44-.36-6-1.82-8.94-1.4-2.38.3-2.71,2-4.67,2.13-3.44.12-3.36-2.37-7.54-2.43-1,2.37,3.28,3.52,4.26,5.59a2.43,2.43,0,0,1-2.38.73c1.72,3.89,5.57-.85,10.33,0,1.31.79-.66,1.76.49,2.43,6,2.37,8.12-2.43,13.2-1.4-.16,1.58-.74,2.43.41,3.46,2.46.85,4.92-1.76,8-.36Z"/><path id="Fill-16" class="cls-2" d="M1095.48,77.73a3.62,3.62,0,0,0,1-3.16c-4-1.21-8.77.79-11.72-1.4-3.85,3-14.76-3.28-13.61,5.22,7.54,2.25,16-.67,24.35-.67Z"/><path id="Fill-17" class="cls-2" d="M1114.25,78.46c-1.8-1.7-14.51-3.22-14.59.3,2.38,1.28,13,2.19,14.59-.3Z"/><path id="Fill-18" class="cls-2" d="M241.77,96.19c2.79-.3,4.26-1.46,7.05-1.7,2.54-5.4,10.74-6.68,17.38-9-.82-2.06-4.35-3.52-7.05-3.83-1.56-.12-3.53.79-5.17.73-1.07-.12-2-1-3.28-1.4-3.77-1-11.4-.85-14.59-.73,3.85,4.55-.16,8.93-4.26,11.54,5.57-.18,6.56,3,9.92,4.43Z"/><path id="Fill-19" class="cls-2" d="M307.6,86.78a23.2,23.2,0,0,0-1,2.43c3.36,2.25,9.84,2.25,12.22,5.22,2.71-.3,3.69-1.4,6.64-.73,1.31-1.09,2.62-3.28,1.39-5.22-.82-.79-3.36-.36-3.77-1.4.25-1.21,2.79-.73,2.3-2.43-1.56-3.46-13.53-2.13-15,.73,1.07.79,4,.3,3.77,2.13-2.38,1.09-4.26-.73-6.56-.73Z"/><path id="Fill-20" class="cls-2" d="M1079.9,85.75c2.87.79,9.51,1.21,12.22,0-.41-3.28-11.81-3.58-12.22,0Z"/><path id="Fill-21" class="cls-2" d="M1217.14,94.43c-4.59-1.4-12.3-1.58-14.1,1.7,3.12,1.82,13.86,2,14.1-1.7Z"/><path id="Fill-22" class="cls-2" d="M586.68,115.38c-5.33-1.94-8.61,2.31-16,1-1.39.36-1.39,1.76-3.77,1.4-.74-2.85-9.35-3.58-10.33-.3.49.06.49.55.41,1,.9.61,3.12.24,4.67.3-.9,1.52-3.44,1.88-4.67,3.16a43.17,43.17,0,0,1,8,1.4c-1.07,1-3.2,1.34-5.66,1.4,11.89,4.86,24.68-.61,33.86-3.83-2.54-1.64-5.17-3.16-6.48-5.59Z"/><path id="Fill-23" class="cls-2" d="M624.23,160c-1.64,1.4-5.08,1.34-6.64,2.79,3.44,3.34-.16,6.8-1.89,9.41,8.77-.12,13.69-3,22.05-3.46-1-2.13.08-4.49,3.77-4.19C640.38,162,635.79,162,634,160c-.57-3.52-7.62-4.62-8.94-8.75,1.15-1.58,4-1.94,3.77-4.49-1.56-.67-4.67.67-6.64-.3.25-.73,1-1.15,1.39-1.7-4.51-3.22-7,1.09-9.35,2.13a40,40,0,0,1,1.39,7.65c4.35.67,7.62,2.25,8.61,5.4Z"/><path id="Fill-24" class="cls-2" d="M615.29,163.12c-2.13-3.34,1.72-3.89.49-6.92-5.74-1.58-8.2,2.31-13.2,2.43,1.56,3.4-1.31,4.49-1.39,7.65,5.9,1.76,11.81.12,14.1-3.16Z"/><path id="Fill-25" class="cls-2" d="M1085.15,184.07c1.31-1.7,3.94-.79,5.66,0,1.07-3.28-3.53-7.11,1-9.41,1.39.24,2,2.25,3.28,1.4.66-3.22-3-6.32-3.77-10.08-.49-2.43.41-5-1.39-7.29-.57-.06-.66-.43-1.39-.36-3.77,4.25-1.07,13.36-1.89,19.86-1,1.4-3,3.83-1.48,5.89Z"/><path id="Fill-26" class="cls-2" d="M1071,206.72c-1.07,2.85-2.3,5.47-5.66,6.62-8.53-.43-15.33,2.92-18.36,7.65,1.23,1.52,1.48,3.77,3.77,4.49,3.61-.18,5.41-5.47,2.79-6.92,3-.73,7.21-2.31,10.33-1.7-2.62,1-6.89.73-8,2.79,2.38,4.49,5.9-1.76,9.84-.36,2.54-2.67,9-4.13,14.1-3.83.74-4.62,7.79-9.23,7.54-14-.16-2.61-3-3.7-3.77-6.62.74-.12.74-.55,1.39-.73,1.64.3,2.87,1.09,4.67,1.4,1.89-1.15,4.18-2.73,7.54-1.76-.16-1.4,1.07-1.76,1-3.16-5.82-.55-7.54-4.19-13.2-4.86,1.07,5.16-3.36,6.13-5.17,9,1.89,4.31-1.56,7.11-1.39,11.17-1.56,1.46-5.41,2.55-7.46.73Z"/><path id="Fill-27" class="cls-2" d="M1023.08,240.55c-6.23-3-9.43,7.65-4.67,9.78,1.23-3.58,4.35-5.65,4.67-9.78Z"/><path id="Fill-28" class="cls-2" d="M86.73,248.5a7.78,7.78,0,0,0,4.67,1.7c1.48-2.31-3.28-4.31-4.67-1.7Z"/><path id="Fill-29" class="cls-2" d="M101.33,252.39c-.9-2.43-6.07-3.64-9.35-2.43,1.89,1,3.12.79,2.79,2.79,1.48.3,2.62-1.58,1.89,0a17.9,17.9,0,0,0,4.67-.36Z"/><path id="Fill-30" class="cls-2" d="M101.74,253.42a5.17,5.17,0,0,0,0,6.62,44.79,44.79,0,0,1,6.07-2.13,8.66,8.66,0,0,0-6.07-4.49Z"/><path id="Fill-31" class="cls-2" d="M1007.59,280.93c7.62,1.4,7.05-9.41,14.59-6.92.16.79.74,1.28.41,2.43a15.87,15.87,0,0,1,4.67,2.13c.25,1.21-1.64.85-1.39,2.13,4.84-1,6.89-3.89,8.94-7-.33-1.76-4.67-1.52-3.28-3.46-2.46,0-3.44-.55-5.66,0-4.84-2.55-3-9,0-12.21-5.74-3.64-11.07,1-10.82,5.89.9,1.34,3.12,1.64,3.28,3.46-.49.73-1,1.4-1.39,2.13.74.49,1.89.73,1.89,1.76a14.19,14.19,0,0,0-4.67,1c.66,4.92-4.67,5.47-6.56,8.62Z"/><path id="Fill-32" class="cls-2" d="M1034.4,276.74c-.33,3.46-4.1,4.37-8.94,4.49-1.31,1.09-2,2.67-3.28,3.89,3.36.73,4.59-1.64,6.07-1,1.39,1.4,1.8,3.58,3.77,4.49,1.72-1.4,2-3.89,5.25-4.19-.16-3.16.25-6.68-2.87-7.65Z"/><path id="Fill-33" class="cls-2" d="M888.79,279.17c-.16,3.16-1,6.38.9,8.75a21.16,21.16,0,0,0,4.26-.73c2.54-3.52.25-7.53-5.17-8Z"/><path id="Fill-34" class="cls-2" d="M990.29,293.87c-1.07,1.4-.82,3.77-2.79,4.49-1.07-.85-1.31-2.31-3.28-2.43-6.31,5.16.66,7.23,1.39,11.84a117.25,117.25,0,0,1,17,4.49c5.17-3,3.28-11.3,10.74-12.57-.66-3-3.94-4.07-3.28-8,1.07-.85,3.36-.79,4.76-1.4-.82-2.55-4.35-3.1-5.25-5.59-7.46,1-9.67,8.81-19.27,9.17Z"/><path id="Fill-35" class="cls-2" d="M967.66,305.71c-3.77-8.14-16.72-9.41-22.05-16.4-3.69.49-4.43-1.4-7.54-1.4-3.2,3.34,2.87,3.77,5.58,5.59a12.11,12.11,0,0,1,2.79,2.79c5.58,7.17,12.46,17.61,23.53,19.19a33.2,33.2,0,0,0,2.3-8.38c-.82-.91-3-1-4.59-1.4Z"/><path id="Fill-36" class="cls-2" d="M1026.86,305c0-.79.74-1,.41-2.13a8.31,8.31,0,0,0-8,1.4c-1.15-.55-1.89-1.4-3.77-1.4-6.39,2.92-1.07,7.23-1.89,11.84a6.67,6.67,0,0,0,4.67,1c2.21-2.37-2-7.35,1-8-.82,2.31,3.12,3.83,1.39,6.62,2.21,0,3.2.91,5.66.73,2.21-3.58-2.87-6.62-4.67-9.41,1.15-.67,3.12-.73,5.17-.67Z"/><path id="Fill-37" class="cls-2" d="M1088.92,309.54c-2.13-.79-4.51-1.52-7.05-2.43-2.3-.79-5.08-2.73-6.56-2.79-4.92-.18-6.89,4.55-11.72,4.49-1.39-1.76-1.64-4.31-2.79-6.32-4-.55-11.31-1-11.31,2.43,2.38,1,6.15,1,8.44,2.13-1.8.06-2.21,1.15-3.28,1.76,5.08,3.64,17.05,2.19,19.76,7.65-.25,1.58-2.71,1.52-2.38,3.46,1.39,1.15,4.59,1.28,7.05.73,2.3,1.82,6.48,2.13,8.94,3.83,2.21-1,3.36-2.61,4.67-4.19,10.66-.18,10.74,7.41,22.55,6.32-2.71-3.46-11.31-4-9.35-9.78-2.13-3.83-9.51-4.55-17-7.29Z"/><path id="Fill-38" class="cls-2" d="M1119.91,315.12c.25-1.52,1.56-2.37,1.39-4.19-1.39-.49-1.64.18-3.77,0,.25,4.37-7,3.22-11.72,3.83,4.43.61,10.25,2.43,14.1.36Z"/><path id="Fill-39" class="cls-2" d="M995.37,318.95c1.8-.18,2.3.61,4.26.3.16-1.34-.9-1.64-1.39-2.43-12.38.85-18,.12-26.81-1.7a4.83,4.83,0,0,0,1,3.52c12.3-.12,18.94,4.07,31.48,3.83-.66-2.79-6.56-1.76-8.53-3.52Z"/><path id="Fill-40" class="cls-2" d="M1005.29,321.38c1.39,2.67,8.77,2.92,8.44-1-2.79-.73-6.07.43-8.44,1Z"/><path id="Fill-41" class="cls-2" d="M1027.84,326.24c4.51-1.4,8.77-3,13.12-4.49-4-3.1-13.61-.18-13.12,4.49Z"/><path id="Fill-42" class="cls-2" d="M1014.23,324.54c1.39.55,2.46,1.4,5.17,1,.16-1.34-.9-1.64-1.39-2.43-2-.12-3.85,0-3.77,1.4Z"/><path id="Fill-43" class="cls-2" d="M1114.25,354.48c-1.23-.55-3.36-.3-4.26-1-.82-4.92-7.38-5.47-9.92-8.32-2.79-3.22-3.36-9.41-8.44-11.17-.49-3.28-2.13-8.5-6.56-6.62-1.8,4.37,1.64,12.57-2.38,15.3-8.12,0-9.59-5-16.89-5.59.82-2.73,4-3.83,4.26-6.92-2.21-1.88-4.84.12-7.54-.3-1.89-.36-2.3-1.7-4.26-1.76-3-.12-5.17,2.06-8.94,1.76-2.38,1.64-3,4.49-3.77,7.35-3.85-.43-5.58-3.1-8.94-2.43-2.71.55-1.8,3.58-4.67,4.92-2.3,1-3.28-.18-6.56.67-1.89,1.94-2,5.28-3.28,7.65-8.44,3-21.73,2.19-26.32,8,.74,2.92,1.07,7.41-1,9.41,3,5.65,6.48,11,8.44,17.43-1.15.61-3.53.36-3.77,1.76.9,3.4,6,3.64,11.31,3.83,3-2.79,11.48-3,17.38-2.43,7-7.77,35.34-10.51,38,2.13,3.44-.43,2.87-3.89,6.56-4.19,1.89.36,1.39,2.43,1.39,4.19,4.67,4.31,8.69,9.17,17.38,10.45,2.38-.24,2.3-2.25,4.67-2.49,4.1,5.83,8.12-2.49,14.59.36,2-1,.66-2.79,1.39-4.86,1.31-3.46,5.41-5.4,7.54-8.75a25.75,25.75,0,0,0,3.28-17.07c-.66-4.68-7.38-5.83-8.77-11.3Z"/><path id="Fill-44" class="cls-2" d="M790.57,330.85c-2.3,1.82-4.76,3.64-5.66,6.62-3,1.4-8.36,1-11.72,2.13.08,3.64,2.3,5.71,3.28,8.68-6.64,3.89-5.82,17.31,5.66,15,8.28-1.7,2.87-16.28,9.84-19.86-.33-1.52.82-1.94.49-3.46.66-.61,3.2.12,2.79-1.4-.74-3.28-1.48-6.44-4.67-7.71Z"/><path id="Fill-45" class="cls-2" d="M1197,394.92c-1-3.22-6.72-2.85-6.56-7a20.83,20.83,0,0,0-4.67-1c.49,4.31,6.39,4.49,5.66,9.78a18.3,18.3,0,0,0-3.28,1.4c2.21,2.06,3,5.16,4.67,7.65,3-1.15,5.74-2.73,5.66-6.26,6.23-.12,6.56-6.68-1.48-4.55Z"/><path id="Fill-46" class="cls-2" d="M1185.66,404.7c-1.72-.67-1.89-2.55-4.26-2.73.33,10-14.92,8.44-15,18.16a33.33,33.33,0,0,1,6.07,1.4c2.54-1.52,5.41-2.73,8-4.19-.49-7,9.18-6.5,9.84-12.57-1.23-1-2.62.3-4.59-.06Z"/><path id="Fill-47" class="cls-2" d="M1095.48,402.57a4.31,4.31,0,0,0-.41,2.79c2.13,1.64,3.53,3.83,5.17,5.89,2.54-.18,3.85-.18,5.66-.3.08-3,2.62-5.83,1.39-8.75-3.2,1.28-9.76,1.28-11.81.36Z"/><path id="Fill-48" class="cls-2" d="M1227.47,111.56c-1.64.36-.66,2.55-1.89,3.16-1.48-.79.57-1.88.49-2.73-12.3-6.74-29.51-11.84-48.86-12.21-1.72,1.88,2.13,2.31,1.89,4.19-4.35,1.88-6.07-.73-7.54-2.79-7.38-.73-18.2,3-21.15-1.7-1.39.79,2,1.94,1,2.43-5.58,2.49-5.17-1.46-9.43-3.83a24.3,24.3,0,0,0-7.05-2.13c-4.35-.49-8.28,1-13.2.73-3.69-.24-6.48-2.61-10.33-2.79-.74-3.77-7-3.4-12.22-3.83-2.21,0,.74-1,0-2.13-3.44,3.58-14.84-.24-20.66,1.7-1,1,.08,3.52-1,4.49-8.12-1.34-17.87,2.55-20.66-2.79-1.89-.3-1.48,2.06-2.79,1-1.15-1.94-1.72-4.25-2.79-6.32-1.39,3.64,4.26,6.07,2.38,10.08-1.07.49-4.51,1-5.25.73-5.49-1.15-2.21-8.81-5.17-11.84-5.17-.36-9.59-1.21-15-1.4-1.56,3.22-5.25,4.8-9.35,4.49-3.28-.18-5.41-2.85-9.35-3.46-7.21-1.15-14.68,0-21.56-1-.16-1,1.48-1.34.41-2.13-3,3.64-10.74,3.64-16,5.59,2.79-3.77,14.51-5.28,20.66-8,1.89-.85,4.59-2.19,4.67-3.83.49-6.19-13.69-6.5-22.05-4.49-2-.67-2.13-2.85-5.25-2.79,1-1,.82-1.4.49-2.79A22.08,22.08,0,0,0,956.35,68c-.16,1.09.33,2.55-.41,3.16-3.77-.43-7,1.88-11.31,2.43-2.87.36-6.31-.24-9.35,0-4.67.3-10.58,2.13-15,2.43-1.48.12-3.2-.24-4.26,0a12.09,12.09,0,0,0-8,7.35c-8.53-1.21-20.25-.06-18.77,5.59.74,2.37,4.35,2.37,8,3.16-4.92,2.73-11.81-1.21-15-3.16-1.56.12-2.79.55-2.38,2.13-2.62-.43-3,.73-3.28,2.13.16,1.82,3.94,1,5.25,2.13-3,1.46-6,.06-8.44-.73.9-2.37,4.35-5.83,0-7.35-1.07.36-.16,2.19-.41,3.16-6,.3-4.92,5.1-2.3,7.65-.16,2-2.87,2.85-2.38,4.49,1.31,4.43,16.56-1.4,12.71,5.59-1.64-1.88-4-3-8.94-2.43-1,6.5-4.51,11.11-16,9.78,4.35-1.7,11.07-2.55,11.72-6.92.16-1.28-1-1.76-1.39-3.16-.82-3.4,1.39-8.93-2.79-10.51.74-2,3.28-2.73,4.26-4.49-1.48-2.61-7-2.31-11.23-2.73-2.54,3.64-6.89,5.83-10.33,8.75.25,2.13,2.71,2.67,1.89,5.59.9,2.37,5.49,2,4.76,5.59-3.94-.55-6.64-3.83-11.31-4.86-3.77-.85-8-.79-11.72-1.7-3.44-.91-6.31-3-9.35-1.7-.74,2.31,4.59,2.73,6.56,4.19-.25,1.21-.16,2.61-1,3.46-2.79.3-2.13-1.88-4.26-2.13-6.48.3-11.23,1.88-16,3.46-.33-1.46,1.48-1.4,1.39-2.79-7.54-.36-13,3.83-20.66,4.49-1.39,1.09.74,1.76.41,3.16-3.36.73-7.05,1-8-1.7a3.23,3.23,0,0,0,3.77-3.16,57.55,57.55,0,0,0-10.74-2.13c1.07,3.22,3.69,5.22,3.28,9.41-6.72-2.25-8.12,1.88-14.59,1.7.16,2,2,2.73,2.38,4.49-4.51,1-6.89-2.06-11.31-2.13-2.38,2.55,3.12,3.89,2.79,4.86-3.85.18-5.9-1-8.44-1.7,1.72-6.07-4.76-6.26-7.54-9.78,8.85,2.06,21.73,7.17,27.71,0a14.57,14.57,0,0,0-7.05-6.26c-1.23-.49-3.69-.18-5.66-.73-3.44-.91-6.31-3.4-12.22-1.7-1.89-1.7-6.56-2.85-9.35-2.79-1.31-1,.41-1.7.41-2.73-3.77-1.4-9.51-3.34-13.61-1.4-1.89.12-.74-2-2.79-1.7-3.85-.06-5.25,2.73-8.94,1.7-2.79.18-3.61,2.37-6.07,3.16-2,.61-4.59.12-6.64.73s-3.2,2.31-5.17,2.79c-1.39.36-2.79,0-4.26.36-3.61.91-6.8,2.55-9.84,3.46,1.07,1.21,3.44,1.4,6.15,1.4-1.72,2.13-4.59,2.85-6.15,4.92-.57.79-.33,2.13-1,2.79-1.89,2.13-6,2.73-6.56,5.59-6.89,4.74-21.89,6.38-16.4,18.1.49,1.4-.74,1.58-1.39,2.13,3.2,6,14.68,2.67,17.79-1,4.1,3.4,4.67,9.6,8.44,13.24,4.18-.3,5.33-2.79,9.92-2.79,2.79-3.64,2-8.2,8.44-9.41.74-3.83-1.56-5.53-5.66-5.89.9-6.44,6.64-9.23,12.71-11.84.41-2.49,2.21-3.95,3.28-5.89,3.28-.24,5.66-1.21,9.35-1-.74,5.22-8.69,5.83-11.23,10.08,1.39,3.28-.16,8.75,2.3,11.17,6.89.61,10.08-1.58,14.59-2.79a16.1,16.1,0,0,0,5.17,1.7c1.89-.3,2-2,2.79-3.16,4.35,3.28-3.61,4.49-5.25,6.62-3.28-1.64-10.49-1.15-14,0-.16,2.67,2.21,3.46,3.28,5.22-1.07,1.21-.41,3.64-2.79,3.83-1.31-1-1.64-2.79-1.39-4.86-5.17,1.7-7.05,5.89-8.44,10.45-2.87,2.13-7.79.49-11.72,1-3,.43-4.51,2.37-7.05,2.43-4.51-3.46-10,1.7-13.61-1.4.33-2.92,5.08-2.49,6.07-4.86-2.21-2.13-5.82-3.34-6.07-6.92-3.77.24-4.92,2.37-7.54,3.46-.16,3.64,1.89,5.65,3.77,7.65-1,3.46-5.33,1.7-8.44,2.43-2,.49-3.53,2.73-5.66,4.19-4.35,3-9.59,3.77-10.33,8.38-2,1.21-4.92,1-7.54,1.7-3.53,1-5.49,3.22-11.31,1.4-2,4,3.94,5,8,5.59,2.62,2.37,3,8.08,0,10.08-8.69,1.09-17-2.67-22.55.36.25,3.28,2.46,5.65,1.89,8.38-.41,1.58-2.87,2.25-3.28,3.83-.49,2.13,1.39,2.79,1.39,5.22,1.89.36,4.59,1,6.56.36,1.64,1.28,2.62,2.92,4.26,4.19-3.53,1.34-5.49,3.83-7.05,6.62-4.92.79-7,3.64-8.44,7a3.54,3.54,0,0,0,1.39,3.16c-2.71,2.37-6.31,3.89-10.82,4.92-2.79,1.52-3.77,5-6.64,8.38-3.2,3.83-10.58,8-4.26,11.54.49,3,1.89,6.92-.41,9-2,7.41,4,9,8,13.24,4.76,5.1,11.81,13.54,16.89,14.27,12.05,1.76,28.78-.55,37.06-4.19,4.92.49,7.3,2.67,9.92,4.86,4.18.3,8.85.18,11.72,1.4,1.56,4.86-2.79,6.74-2.79,10.08,0,5.65,9.92,7.35,9.35,13.24,6,1.46,2.62,9.9,6.07,13.24-3.2,3.58-7.38,9.72-6.07,15.3.82,3.89,6.15,7.29,7.54,11.54.57,1.82-.08,3.83.49,5.59,2.13,7.77,9.84,12.69,11.72,18.16,1.39,4.07.16,6.92,4.67,7.65,3.12.49,11.56-.67,15.5-1,15.33-1.4,22.3-9.6,29.6-18.1.57-2.13-1.48-2.13-1.39-3.83,6.48-.36,10.74-9,5.66-12.51,4.51-6.56,17.3-7.41,19.27-15.36.9-3.64-1.48-6.32-2.38-10.08-1-4.31.74-8.93-1.39-13.24,4.35-3.16,6.39-7.41,10.33-10.81,2.13-1.88,5.49-2.67,8-4.19,9.76-5.89,15.41-13.54,18.36-24.78-6.48-.12-18.77,5.1-25.33.73-.49-5.65-9.1-6.62-12.71-10.81-.66-.79-.66-2.31-1.39-3.46s-2.46-2-2.79-2.79c-1.23-2.19-1-4-2.3-5.89-1.07-1.46-3.12-2.79-4.26-4.49-2.79-4.13-3.2-9.17-7.05-12.94a3.93,3.93,0,0,0,2.38.36c5.74-6.8-2.38-9.66-10.82-9.41-3,.12-5.9,1.76-8,1.76-1.48-.06-2.79-1.21-5.17-1.76s-5.17-.24-7.05-.73c-4.1-1-7.62-4.07-14.1-1.7-1,1.4.16,2.49,0,4.19-1.39.73-3.12,1.15-3.77,2.43-3.2-1-4-3.77-8.94-3.46-.49-6.56-13.53-2.31-17.38-5.89,1.39-3.89-1.8-6.19-1.39-9.41a149.93,149.93,0,0,0-24.92.3c-9.1.85-13.61,7.83-23.53,3.46.16-2.19,2-3.22,3.28-4.55,7.38,1.21,11.81-1.94,15-4.86a11.1,11.1,0,0,0-.41-3.83c2.13-4,10.17-3.58,9.84-9.41,6-.43,12.71,1.46,17-2.79,4.26.3,7.21,1.64,7.54,4.86,4.35,2.79,10.66,4.19,14.59,7.35a3.4,3.4,0,0,0,1.39,3.46c-2.46,2.13-10.66-1.7-11.31,2.13,1.89,2.06,6.8,1.88,8,4.49,1.31-4.92,7-4.55,6.07-11.17,2,.3,4.92,1.28,7.05.3-8.12-3.77-20-6.5-19.27-15.67,8,1.88,10.58,7.71,18.86,9.41-1.89,8.32,7.87,10.81,10.33,17.13,7.38-1.82,1.31-7.89,3.28-11.84,4,.36,6.23-.49,8.94-1-.33,7.65,5,11.17,12.71,12.94,6.89-.55,13-1.34,19.68-1,.16,1.28-1.15,4.49.49,6.26-5.58,2.06.41,11.72-4.26,15,2.3,4.68,7.21,8.5,10.33,13.24,2.62,3.89,2.3,7.77,8,9,1.64,3.1,4.35,5.34,6.56,8,.41,2.85-.74,5.65,0,7.65,7.21,3.83,28.12-3.46,32.88-7.65,2,.24,2.62-.55,4.67-.3,4.59-2.19,7.13-5.89,12.71-7.35-.33-4.07,2.79-5.53,4.67-8-2.38-2.55-7.21-3.28-10.33-5.22-.16-1.15.41-2.79-.49-3.46-4.67,3.1-13.77,9.23-18.77,3.16-.33-1.34-.41-1.4.41-2.43-1.15-1.82-3.36-2.85-6.07-3.46-1.07-2-1.48-4.49-5.17-4.55,1.64-4.68,10.17-2.37,12.22.36.16,6.32,11.15,7.71,17.79,5.22,1.31,1,1.48,2.79,2.79,3.83,10,.12,17.54,1.76,26.81,0,2.87.91,2.62,4.07,4.67,5.59,2,.36,5.25-.24,7.54.73,1,1.15-1.39,2.31-1.89,3.46,2.3,3,7.87.3,11.31,0-3.94,12.51,7,22.59,11.72,32.13,8.2-1.7,15.17-8,11.23-15.36,4.18-5.28,14.68-9.41,21.15-14,2.13-1.4,3.69-3.89,6.07-4.19,7.46-.85,11.81,4.07,16.89,6.92-.57,4.13.82,6.8,2.3,9.35,4,.55,3.85-3.46,6.07-3.46,3.36,0,6.31,7.65,8,9.78-.41,1.4-3.53,7.59-3.28,9.78s3.61,2.61,5.17,5.22c.57,1,.16,2.13.41,2.79,2.38,4.74,8.44,10,14.1,9,.41-3.4-5.41-5.22-2.3-8.38-3.12-2.13-5.9-4.43-10.82-5.22-2.46-4.68-1.39-10.45-1.39-15,9.1,1.52,13,6.92,16.4,12.57,3.12-1.64,5.82-2.79,8.44-4.49,4-2.73,7.79-6.92,5.17-12.21-1.56-3.22-9.51-5.1-9.92-8s4.51-5.4,5.25-7.35a72.39,72.39,0,0,0,22.55-2.79c4.59-1.15,8.53-1.15,11.31-3.46,2-1.64,4.84-6.5,7.54-8.75,1.72-1.4,4-2.31,4.26-3.46.25-1.46-1.89-3.34-2.3-4.86-1.23-3.83-1.15-9-5.25-11.17,1.07-2.55,5.25-2.92,8-4.19.82-4.25,4.43-6.5,7.54-9,2.71,1.21-.49,3.64.41,5.22,1.15,1.15,4.43.61,6.07,1.4-.16,2.49-2,6,0,8a1.11,1.11,0,0,1,1,.3c4.59.12,7-1.34,8.94-3.16,1.15-6.32-4-7.89-5.66-12.21,2-.36,3.36-1.15,5.66-1.4,2-1,1.15-3,2.3-4.19,2.3-2.19,5.49-1.46,10.33-2.43,4-.79,8.69-4.25,12.22-8,3.12-3.28,7.54-7.71,8.94-10.45,1.31-2.55.82-4.8,1.39-6.62s2.62-3.89,2.38-5.59c-.49-3.58-6.64-5.34-12.3-3.46-2.13-.73-3.36-2.13-6.07-2.43,2.3-3,6.39-4.25,10.33-6.92,2.87-2.06,5.82-6.13,9.35-7.35,4.35-1.46,9.92-.49,16.4-1,.41,1.7-1.31,1.88-1.39,3.16,2.3-.12,1.8-2.37,2.79-3.46,7-3.22,14.51,3.16,22.55,0,1.31-6,7.05-8.75,16-9,1.39,1.09-.74,1.46-.49,2.79,4.92,1.7,7.71-1.64,9.43-2.13-3,3.1-9.67,9-2.79,3.83,1.48-1.09,2.71-1.7,3.28-2.79,1-1.52-.25-4.55,3.77-3.83,1.8,3.95-3.36,5.4-7.05,8-3.12,2.25-5,5-7.54,5.89-1.48.55-3.36.43-4.67,1-9,4.25-8,14.94-5.66,24.41,8-1.15,11.89-5.34,14.1-10.81,1.64-.79,4-1,5.66-1.76-.41-5,7.54-9.41,0-11.84,3.44-4.31,5.9-5.34,13.12-6.62,1.07-.18,2.3-1,3.28-1,3.36-.24,5.9,1.52,8.94,1.4,3.36-.12,6.31-3.64,9.84-5.22,5.66-2.55,10.74-4.07,17.38-2.73,4.26-2.79.74-8.5-4.26-8.75,2.79-1.21,7.46-1,10.74-1.76,1.39-1.15-1.89-3.28-1-4.19,3.69,1.15,6.48,3.1,11.72,3.16,1.72,2.19,4.84,3.34,8,4.49,3.28-.36,3.2-3.16,4.67-4.92,2.62-.55,5.33-1,8-1.4v-1c-3.44-2.73-8-4.62-13.53-5.71Z"/><path id="Fill-49" class="cls-2" d="M520.35,313.42c-6.48,1-8.44-4.62-13.2-5.59-3.53-.73-7.54.67-10.74-1.4-2.62-.12-2.62,1.76-5.25,1.76.08-.91,1.89-.55,1.89-1.4-1.89-1.82-7.05-4.19-10.82-3.83-3,.3-3,2.61-6.07,2.79,1.23-1.21,3.77-1.4,4.26-3.16-1.23-1.15-3.85-1.34-5.66-2.13.74-3-1-4.13-3.28-4.86-.41-1.4,1.07-2.06,0-2.79a15.73,15.73,0,0,0-10.33-5.89c-5.17-.61-10.33.61-13.61-2.13,1.31-2.67-3-3.64-5.66-4.49-1.39,0-2.38.3-2.79,1-1.07-.73,1.8-1.46,1.39-2.79-.57-1.21-3.69-.55-5.17-1-.33-1,.41-1.28.41-2.13-3.53-1.09-6.56.55-8.44,1.7-2.54-1.4-5.49-.36-8.44-1-3.94-.85-6.89-4.8-11.72-1-1.72,1.82,1.39,3.4-.41,4.49-4-1.34.08-6.26,2.38-7.35-2.79-1.52-5.08,1.21-8,2.13-2.21.67-4.84.06-6.64,1-2.54,1.46-2.21,4.49-4.67,5.89-3.36-2.73-11.07-2.92-15-.73-8.12-1.94-8-8.32-6.07-15.36-3.2-2.79-11.89-1.15-17-1.7.9-1.34,1.89-2.55,1.39-4.92,2.79-2.06,3.12-5.89,4.67-8.75-3.2-1.7-9.26,0-12.22.73-1.15,1.34-.74,3.83-2.3,4.86-4.84,1.4-10.41,2.19-15,.3-3.85-3.89-8.12-11.9-3.28-17.07-.16-1.58-.82-2.85-1-4.49,3.85-1.4,5.57-4.19,10.33-4.92,6.64-1,14.1,3.28,17-1.7,7.54-1.34,10.17,2.79,15.5,1,4.18,3.4,4.26,9.9,9.35,12.57,8.69-4.25-2.79-10.26-1-17.07,5.33-4.07,12.22-7,17.87-10.81-1.07-3.77-4.67-4.8-3.28-8,2-1.34.66,2.13,2.38,2.13,6.64-2.61,5.66-10.93,17.38-9.78,1.31-1.7-.41-3.83,0-5.89,2.71-1.88,8.12-1.7,11.31-3.16,1.07-2.79-3.2-5.77-1.89-8.75,4.1-1.15,9.26-1.46,10.74-4.49-8.61-2.31-15.91,2.31-20.25,5.59.41-6.07,10-5.34,12.71-9.78,8-.91,13.77,1.15,19.68.3,4.84-.67,8.2-5.16,15.5-4.86-.66-2.55-1.31-3.46-1.39-5.89-.82-1.46-3,.18-4.26-.73-.49-1.7-2.62-1.09-1-2.79-2.21-.55-3.77-1.64-7.05-1.4-1.31-1.82-4.59-2.19-6.07-3.83,1.07-5-6.07-9-8.94-13.24-4,.3-4.43,3.22-6.07,5.22a39.84,39.84,0,0,0-5.66.73c-1.23-1.7-3.36-2.61-4.67-4.19a4.49,4.49,0,0,1,1-3.83c-3.85-.73-8.44-4.86-13.61-6-1.8-.36-5.25.24-8,0-3-.24-5.66-1.58-7.05,1,2.54,4.37,2.71,8.68-1.89,11.54,4.18,2.73,9.43,5.83,5.17,11.17-1.56,1.28-5.66.67-7.54,1.7,1.89,3.89,5.82,11.54-1.89,11.17-5.08-.24-7.62-6.56-5.66-11.17-2.87-2.13-7.38-1-10.74-1.4-6.31-.85-10.08-4.49-14.59-6.26-3.53-.55-6.07,1.15-8,.73-.41-3.77-3.61-5.47-7.05-6.92-.57-8,5.82-10.75,12.71-13.24.41-1.4-.74-2.55,0-3.16,3.85-.67,9.84-1.4,11.72-4.49.74-1.76-2.21-1.76-1-2.73,2.13-.73,4.26-1.46,4.67-3.46,6.56-.73,11.81,1.21,15-2.43.08-2.13-1.89-2.73-2.38-4.49,4.35-1.46-2.3-5.1,1-7.65,2.54.85,5.41,1,7.05,1.7,1-.36,1-1.34,1-2.43,2.62.73,3,3.1,7.54,2.43.49,1.52-1.56,1.15-1.39,2.43,1.8.79,4.67.73,5.66,2.13-.49.91-2.46.67-4.26.73a6.61,6.61,0,0,0-1.89,4.19c0,1.15,2.62.36,3.28,1,3-1.7,2.21-5.83,7.54-4.86,5.17,1,3.44,8.38-4.26,7.65-.33,1.82,4.18,1.34,2.38,3.16-3.2,2-12.3-.3-12.22,4.19,3.61,2.37,9.26.18,13.61,1,4.59.85,6.64,4.86,9.84,6.32,7-.24,10.82,3.58,16.4,3.16-2-3-6.48-4.25-8-7.65,2.71.24,4.76,3.89,8.94,4.19,1.64-.18,1-2.06,3.28-1.7.16-6.74-10.58-7.17-10.74-12.57,7.13-1.76,8.12,4,12.71,5.22,3-2.19,5.9-4.43,8.94-6.62-2.79-3.77-12.3-2.49-15.5-5.89-3.94.12-7-.36-8.44-2.79,1.89-1.52,5.66-1.64,6.56-3.83A11.4,11.4,0,0,0,413,99.35a21,21,0,0,0-3.77-4.49c-6.15-1.15-13.2-1.64-15.5-5.59H390.4c.41-1.52-1-2.37.49-2.79-7.62-1.88-22.38-3.46-28.2.36.74,3.4.49,4.13-1,6.92-6.07-3.22-2.54-8,3.28-9.41-3.36-.79-8.69-1-12.22.36-5.08,2-9.84,12.87.49,11.54.16,1.34-3,.36-3.77,1,2,3.16,10.33,1.7,12.22,4.92-.66,4.31-2.79,10.69-8.44,9-.33-1.94,1-2.73,1.89-3.89-1.64-3.64-7.21-3-9.35-.3.08-2.85-1.64-4.37-4.67-4.92,1-5.77-3.61-7.35-6.64-10.08a21.24,21.24,0,0,1,2.3-3.16c5.08.85,8.44-1.94,10.33-4.49-4.59-3.16-17.54-2.67-19.68,1.76.9,3.16,4.26,4.07,3.28,6.62-.9,2.31-6.64,2.92-6.07,6.62,1.8,2.37,7.05,2.19,9.84,3.83,1.48,2.92-1.31,3.89-3.77,4.92-.74,1.4,0,3.7-2.38,3.83-1.23-1.4-1-4-1.89-4.86,2.3-.24,4-1,4.67-2.43a49.45,49.45,0,0,1-8-3.46c-1.64,2.19-6.07,2.25-7.54,4.55,1,1.15,4,1,6.07,1.4a8.44,8.44,0,0,1-2.79,3.16c-9.26-.12-15.82.36-20.66-3.83,2.38-.67,8.12,1.94,10.74,0,.57-1.76-2-2.43-1-3.46,1.48-.55,4.43,0,4.67-1.4-.16-2.92-5.33-2.13-8.44-2.79-3-2.13-2.46-6.74-5.66-8.75,4.26-2.37,2.87-6.62-4.26-5.89-1.64.73.66,1.64.41,2.43a29.34,29.34,0,0,0-5.66,0c-1,1.58,1.39,5.16,1.39,5.89-3-1.4-3.36-4.68-7.54-5.22-.25,1.76-1.56,2.79-3.28,3.46-.08-3.89-6.8-2.85-9.35-1.4.33-1,1.8-1.21,1.39-2.79C265.46,86.47,247,92,258.49,95c1.15,1-1.48,1.21-1,2.73,3.85,3,13-.12,18.36,1.76-4.92,1.52-15-1.58-15.58,2.13-.66,4.37,11.89.18,11.31,5.59a50.86,50.86,0,0,0,22.55-2.79c1.56.06,1.8,1.21,3.28,1.4-2.3.06-7.71.43-9.35,2.06,2,2.25.25,3.28,2.79,5.22-2.38.55-3-3.1-5.66-3.46-4.76,1.09-12,.43-17.38,1-.16-1.4,2.71-.55,2.79-1.7.16-1.58-.74-2.43-1.39-3.46-6.64-.24-12.87,0-18.36-1.7-4.92-1.58-6.56-4.49-10.74-.3-2.3.12-1.39-2.19-3.28-2.43-2.62,0-1.64,2.73-4.26,2.79-2.79-1.09-3.69-3.52-5.66-5.22-2.46,0-1.23,2.79-3.28,3.16a12.51,12.51,0,0,1-6.64-1c-4.84.55-7.21,3.89-12.22,2.43-3,.18-4,2.73-7.05,2.79-2,.06-4.1-1.94-7.05-2.79-5.41-1.46-9.26-.67-12.71-2.79-1.89-.55-3.28,1-5.17,1s-3.36-1.4-5.66-1.7c-1.72-.3-4,.18-6.07,0-4.76-.73-6.89-2.25-11.23-1-2.21.3-1.23-1.88-2.79-2.06-4.67,1.21-8.12-.79-11.72-1C127.81,95.1,124,99.11,117,99.84c-2.71,3.95-9.1,5.1-15,6.62,3.36,3.28,9.76,4.37,13.12,7.65,2.54.12,5.17.12,6.64,1-1.48,1.34-4.92,1.21-7.54,1.76-4.18-4.31-11.4.24-16.4,1.4,2,5.83,16.32,5.53,22.55,4.19.82.67.33,2.31.41,3.46-4.18.18-5.33,2.73-9.92,1.7-2.38,2.31-7,2.92-7.05,6.92,1.48.61,4.51.12,5.17,1.4-.41,1.21-2.54,1.09-3.69,1.7,1.31,3.95,8.36,1.64,11.72,1.7.74,2.13-1.8,5,2.38,5.59,2.21-.06,2.62-1.58,3.77-2.43,2.38,1.94,5.33,2.19,9.35,1.4,1.72.36-3.12,1.52-1.39,4.19a29.47,29.47,0,0,0-8.94,5.22c-8.77,1.4-14.84,4.8-21.15,8,2.3,1.09,7.54-1.21,9.35-2.79,14.68-2.37,24.19-8.56,34.27-14.27a1.81,1.81,0,0,0-1-2.13c3.77-2.43,5.57-6.32,11.72-6.92a12.42,12.42,0,0,0-6.07,4.49,5.81,5.81,0,0,0,1.89,2.73c3.69-1.4,5.74-2.49,10.74-2.43,1.15-1.15-.33-2.55-.49-3.83,6.31-.43,9.76,3.83,15.58,3.83,1.89,0,3.28-.91,4.67-1,.57-.06,1,.73,1.89.73,1.48-.06.82-.91,1.89-.73,5.74,1.21,8.69,8.32,17,5.89,1.89,2,5.08,3,5.66,5.89,4.67,1.7,7.54,6.38,9.35,11.17,1.64.12,2.71.73,4.67.73.57,1.82,1,3.7,4.67,3.16-1.8,1.46.82,3.7,2.79,4.49-.66,1-3.77-.91-4.67.36,0,2.43,3.36,2.31,5.17,3.46,2.62.73,3.36,2.85,7.05,2.79-.82,3.16,3.44,12.51-1,16.4,1.07,1.76,2.21,4.31.49,6.32.66,2.13,3,3,2.79,5.59,1.23.85,1.64,2.31,3.77,2.43.74,3.58,5.49,5.77,4.67,8.38,13.12,2,13.86,11.48,21.64,17.79a4.06,4.06,0,0,0-2.3.3c.82,2.85,6,2.55,8,4.49-.41,5.16,5.82,5.22,8.44,8,2.79-.91,1-4.07-1.89-3.83-1.89-8.08-12.05-10.14-13.61-18.46,1.07.55,3,.55,4.26,1,2.13,5.28,6.39,8.93,12.22,11.54v2.13a100.44,100.44,0,0,1,13.12,10.45c.16,1.15-1.23,1.7-1,3.83,2.87,3.64,6.64,4.07,12.22,5.89,5.17,1.64,11.07,4.55,16.4,4.86,2.21.12,5.17-1,7.54-.73,4,.49,6,4,8.44,5.22,5.9-.55,7.38,2.19,13.12,1.7,1.8,2.61,4.92,4.25,5.66,7.65a16.89,16.89,0,0,1,8.94,5.22c2.62-1.4,4.92.61,8.94,1,1.64-.18.25-2.55,1.39-3.16,7.87.12,8.2,8.2,6.64,13.24-1.15.67-2.62,1.09-3.77,1.76-.82,3.64-4.59,5.22-7.05,7.65v3.83c2,1.15,4.1-1.28,5.17-.73-1.39,2.43-5.74,2.73-6.64,5.59,5.25,7.71,12.79,13.79,16,23,5.82,4.19,13.94,6.62,19.68,10.81,1.64,3.4-.33,6.13-1,9-.74,3.7,1.07,7.71-.49,11.48-.74,1.94-3,5.83-3.28,9-.16,1.82.74,3.46.41,5.22-.74,5.22-4.26,9.6-6.56,13.54,1,6.5-1.23,10.57-2.38,17.07,4.67.43,2-4.49,4.67-5.59.49,3.95-1.07,7.23-1.89,11.54-1.39,0-2.87.06-2.79-1-1.56.79-3.53,1.4-4.26,2.79.16,1.88,1.48,2.85,4.67,2.43.41,1.4-1.39,2.43,1,2.43-.41,1.09-3.28.36-4.26,1,0,4.31,5.82,7.89,3.28,10.81.49,1,2,1.21,1.39,3.16a30.48,30.48,0,0,0,7.54,3.16c2.62.73,1.39-2.61,3.28-1.4,1.48,1.46.33,2.06-1,3.16,2.13,1.34,4.35,2.61,6.64,3.89h1.39c3-1.21,8.44-.43,10.33-2.43-3.69-1.21-8.12-1.88-9.92-4.49-.25-2.73-1.15-4.92-3.28-6.26.33-2.19,1.64-3.64,4.67-3.83-.49-5,6.56-4.49,6.64-9-1-1.4-5.17-.61-5.66-2.43-.25-1.09.82-1.21.41-2.43,2-.73,4.51-1.09,6.07-2.13.16-2.25,1.31-3.64,1.89-5.59,1.8.06,3.69.18,3.77-1-.08-1.46-2.54-1.15-4.26-1.4.33-1.4-.41-2-.41-3.16a12.69,12.69,0,0,0,8.44.67c.49-1.94.16-4,1-5.89,6.89.12,15.91-.36,17-4.49.49-2-.9-6.32-4.26-7.35,2.21-.73,5.82,1.4,8.94,1,6.64-.73,8.94-7.65,12.22-11.17,5.41-.18,5.25-4.49,9.35-5.59.41-2.73-.74-4.31-.49-7,1.64-2.13,5.66-2.55,7.05-4.86,1.39-.24,1.72.3,2.79.3,2.79-.79,3.77-3,8.44-2.43,10.49-3.7,12.71-13.6,13.12-24.78,1.39.24,1.72-.3,2.79-.3,1.31-5.83,12.63-7.47,9.35-16,.66-1.21-.25-1.34-1.31-2.49Z"/><path id="Fill-50" class="cls-2" d="M332.93,57.87c.66-.79,3.61-1.7,5.17-.73-1.48.06-2.79.24-2.79,1.4v1.7c3.61.67,6.56,2.85,10.33,3.16,6,.43,8.28-3.22,12.71-4.86-.41,1.82-3.12,1.88-2.79,4.19,2.13.85,5.74.43,7.54.73-.33,3.22-8.44-1.52-9.35,2.13.25,1.21,3,.61,3.28,1.76-4.59,1-7.87,2.13-13.2,2.43-7.62.43-14.35-2.79-18.36-1.4-.66,4.55,5.82,3.83,11.31,3.83,2.87,1.58,4.84,3.28,3.77,6.92,3.61.91,8.2,2.43,12.22,1,3.44,2.31,12.3.55,16.4,0,1.31,2.37,5.41.55,9.35,1,.74-1.64,1.89-3,1.39-5.59-10.33-3.83-25.74,4-32.38-3.16,7.87-1.09,17.05,1.15,25.91-1,4,2.19,11.4.24,13.12-2.43-1.48-.36-3.2-.61-4.26-1.4,1.07-.36,2.79-.24,3.77-.73.74-1.28-2.21-1.58-1-2.13,4,.55,5.33-.91,7.54-1.76.25-1.21-2.21-1.15-1-2.13,4.18.18,5.74-1.58,6.07-4.19-5.17-.18-7.71-.43-10.33,1.4,4.18-4.49,16.72-.91,21.64-4.49.16-1.4-3.2-.18-3.28-1.4h5.17c4.92-3.64,14.1-3.95,18.77-7.65-3.36.18-10.41,1.94-12.71-.3,7.46,0,18.45-.24,22.05-4.19-5.49-2.37-11.56-4.37-19.76-2.43.16-.79,2.21-.18,1.89-1.4-7,.73-18-2.79-22.05.73-3.12-2.13-9-2.06-11.72.36-9.35-2.79-13.77,3.89-24.92,2.06-4.26,3.83-18.45.24-21.64,4.92,7.05.91,8.61,6.26,17.87,4.49,1,.36,1.31,1.4,2.38,1.76a45.16,45.16,0,0,1,14.59,0c-4.67,2.06-10.74.12-17,1.4-1.56,1.09,2.13,1.94.41,3.16a10.31,10.31,0,0,1-5.17-3.83c-7.71.85-11.07-5.83-17.87-5.22-4.67.43-6.89,4.19-9.35,7.35,1.89,1.64,2.62,4.13,6.23,4.49Z"/></g><polyline class="cls-3" points="601 230 1002 376 730 146 758 338 620 155 601 230 249 215 461 359 320 73 446 168 1047 222 1115 381"/><line class="cls-3" x1="1047" y1="222" x2="1002" y2="376"/><line class="cls-3" x1="758" y1="338" x2="1047" y2="221"/><line class="cls-3" x1="461" y1="359" x2="601" y2="230"/><line class="cls-3" x1="446" y1="168" x2="461" y2="359"/><line class="cls-3" x1="320" y1="73" x2="620" y2="155"/><line class="cls-3" x1="730" y1="146" x2="620" y2="155"/><line class="cls-3" x1="446" y1="168" x2="601" y2="230"/><line class="cls-3" x1="1002" y1="376" x2="1115" y2="381"/><circle class="cls-4" cx="1115.5" cy="381.5" r="10.5"/><circle class="cls-4" cx="1002" cy="376" r="3"/><circle class="cls-4" cx="1047.5" cy="222.5" r="7.5"/><circle class="cls-4" cx="620.5" cy="155.5" r="7.5"/><circle class="cls-4" cx="601.5" cy="230.5" r="7.5"/><circle class="cls-4" cx="730.5" cy="146.5" r="7.5"/><circle class="cls-4" cx="758.5" cy="338.5" r="7.5"/><circle class="cls-4" cx="446.5" cy="168.5" r="7.5"/><circle class="cls-4" cx="320.5" cy="73.5" r="7.5"/><circle class="cls-4" cx="249.5" cy="215.5" r="7.5"/><circle class="cls-4" cx="461" cy="359" r="12"/><line class="cls-5" x1="4.49" y1="462.78" x2="25.49" y2="462.78"/><line class="cls-6" x1="4.49" y1="454.25" x2="15.49" y2="454.25"/><line class="cls-6" x1="4.49" y1="445.72" x2="15.49" y2="445.72"/><line class="cls-6" x1="4.49" y1="437.2" x2="15.49" y2="437.2"/><line class="cls-6" x1="4.49" y1="428.67" x2="15.49" y2="428.67"/><line class="cls-6" x1="4.49" y1="420.14" x2="15.49" y2="420.14"/><line class="cls-6" x1="4.49" y1="411.62" x2="15.49" y2="411.62"/><line class="cls-6" x1="4.49" y1="403.09" x2="15.49" y2="403.09"/><line class="cls-6" x1="4.49" y1="394.56" x2="15.49" y2="394.56"/><line class="cls-6" x1="4.49" y1="386.04" x2="15.49" y2="386.04"/><line class="cls-6" x1="4.49" y1="377.51" x2="15.49" y2="377.51"/><line class="cls-6" x1="4.49" y1="368.99" x2="15.49" y2="368.99"/><line class="cls-6" x1="4.49" y1="360.46" x2="15.49" y2="360.46"/><line class="cls-6" x1="4.49" y1="351.93" x2="15.49" y2="351.93"/><line class="cls-6" x1="4.49" y1="343.41" x2="15.49" y2="343.41"/><line class="cls-6" x1="4.49" y1="334.88" x2="15.49" y2="334.88"/><line class="cls-6" x1="4.49" y1="326.35" x2="15.49" y2="326.35"/><line class="cls-6" x1="4.49" y1="317.83" x2="15.49" y2="317.83"/><line class="cls-6" x1="4.49" y1="309.3" x2="15.49" y2="309.3"/><line class="cls-6" x1="3.99" y1="300.77" x2="25.49" y2="300.77"/><line class="cls-6" x1="4.49" y1="292.25" x2="15.49" y2="292.25"/><line class="cls-6" x1="4.49" y1="283.72" x2="15.49" y2="283.72"/><line class="cls-6" x1="4.49" y1="275.19" x2="15.49" y2="275.19"/><line class="cls-6" x1="4.49" y1="266.67" x2="15.49" y2="266.67"/><line class="cls-6" x1="4.49" y1="258.14" x2="15.49" y2="258.14"/><line class="cls-6" x1="4.49" y1="249.61" x2="15.49" y2="249.61"/><line class="cls-6" x1="4.49" y1="241.09" x2="15.49" y2="241.09"/><line class="cls-6" x1="4.49" y1="232.56" x2="15.49" y2="232.56"/><line class="cls-6" x1="4.49" y1="224.04" x2="15.49" y2="224.04"/><line class="cls-6" x1="4.49" y1="215.51" x2="15.49" y2="215.51"/><line class="cls-6" x1="4.49" y1="206.98" x2="15.49" y2="206.98"/><line class="cls-6" x1="3.99" y1="198.46" x2="25.49" y2="198.46"/><line class="cls-6" x1="4.49" y1="189.93" x2="15.49" y2="189.93"/><line class="cls-6" x1="4.49" y1="181.4" x2="15.49" y2="181.4"/><line class="cls-6" x1="4.49" y1="172.88" x2="15.49" y2="172.88"/><line class="cls-6" x1="4.49" y1="164.35" x2="15.49" y2="164.35"/><line class="cls-6" x1="4.49" y1="155.82" x2="15.49" y2="155.82"/><line class="cls-6" x1="4.49" y1="147.3" x2="15.49" y2="147.3"/><line class="cls-6" x1="4.49" y1="138.77" x2="15.49" y2="138.77"/><line class="cls-6" x1="4.49" y1="130.24" x2="15.49" y2="130.24"/><line class="cls-6" x1="4.49" y1="121.72" x2="15.49" y2="121.72"/><line class="cls-6" x1="3.99" y1="113.19" x2="25.49" y2="113.19"/><line class="cls-6" x1="4.49" y1="104.66" x2="15.49" y2="104.66"/><line class="cls-6" x1="4.49" y1="96.14" x2="15.49" y2="96.14"/><line class="cls-6" x1="4.49" y1="87.61" x2="15.49" y2="87.61"/><line class="cls-6" x1="4.49" y1="79.09" x2="15.49" y2="79.09"/><line class="cls-6" x1="4.49" y1="70.56" x2="15.49" y2="70.56"/><line class="cls-6" x1="4.49" y1="62.03" x2="15.49" y2="62.03"/><line class="cls-6" x1="4.49" y1="53.51" x2="15.49" y2="53.51"/><line class="cls-6" x1="4.49" y1="44.98" x2="15.49" y2="44.98"/><line class="cls-6" x1="4.49" y1="36.45" x2="15.49" y2="36.45"/><line class="cls-6" x1="3.99" y1="27.93" x2="25.49" y2="27.93"/><text class="cls-7" transform="translate(32.72 115.32)">Janua<tspan class="cls-8" x="14.64" y="0">r</tspan><tspan x="16.75" y="0">y 2014</tspan></text><text class="cls-7" transform="translate(32.72 30.06)">Janua<tspan class="cls-8" x="14.64" y="0">r</tspan><tspan x="16.75" y="0">y</tspan></text><text class="cls-7" transform="translate(32.72 200.58)">Janua<tspan class="cls-8" x="14.64" y="0">r</tspan><tspan x="16.75" y="0">y 2015</tspan></text><text class="cls-7" transform="translate(32.72 302.9)">Janua<tspan class="cls-8" x="14.64" y="0">r</tspan><tspan x="16.75" y="0">y 2016</tspan></text></g></g></svg>