<svg xmlns="http://www.w3.org/2000/svg" viewBox="0 0 24.49 19.59"><defs><style>.cls-1{fill:#e56712;}</style></defs><title>Asset 6</title><g id="Layer_2" data-name="Layer 2"><g id="Layer_1-2" data-name="Layer 1"><path class="cls-1" d="M0,12.35c1.36-.35,2.37-1,2.42-2.46S1.43,7.57,0,7.24C0,5.62,0,4.09,0,2.57A2.39,2.39,0,0,1,2.63,0q9.62,0,19.24,0a2.39,2.39,0,0,1,2.59,2.57c0,1.52,0,3,0,4.62-1.34.37-2.42,1-2.42,2.55s1,2.24,2.42,2.57c0,1.61,0,3.18,0,4.75a2.37,2.37,0,0,1-2.53,2.48q-9.7,0-19.39,0A2.4,2.4,0,0,1,0,16.92c0-.92,0-1.83,0-2.75C0,13.62,0,13.06,0,12.35Zm16.31,3.42.18-.5a36.51,36.51,0,0,1-.89-3.67A2.18,2.18,0,0,1,16.14,10C17,9.11,18,8.38,19.2,7.38c-1.58-.12-2.78-.29-4-.28A1.38,1.38,0,0,1,13.7,6c-.38-1.13-.88-2.22-1.46-3.68-.57,1.4-1.07,2.44-1.4,3.53A1.53,1.53,0,0,1,9.12,7.11c-1.19,0-2.37.16-3.88.28A19.43,19.43,0,0,0,7.37,9.12c1.55.91,2,2,1.25,3.75A13.59,13.59,0,0,0,8,15.33l.11.43C10.84,12.74,13.58,12.47,16.32,15.77Z"/></g></g></svg>