<svg xmlns="http://www.w3.org/2000/svg" viewBox="0 0 23.09 18.54"><defs><style>.cls-1{fill:#343635;}</style></defs><title>Asset 1</title><g id="Layer_2" data-name="Layer 2"><g id="Layer_1-2" data-name="Layer 1"><path class="cls-1" d="M23.08,9.86A3.78,3.78,0,0,0,23,9.1a3.31,3.31,0,0,0-3.29-2.57h-4a4.29,4.29,0,0,0,.09-.85c0-.11,0-.22,0-.33A2.93,2.93,0,0,0,17.54,6,3,3,0,1,0,14.6,2.71a4.23,4.23,0,0,0-6.12,0A3,3,0,1,0,5.54,6a2.94,2.94,0,0,0,1.76-.6c0,.1,0,.2,0,.3a4.34,4.34,0,0,0,.09.88H3.31A3.29,3.29,0,0,0,.06,9.26,15.2,15.2,0,0,0,0,11.16a.74.74,0,0,0,.75.78H5.22a4.48,4.48,0,0,0-1.55,2.75,21.49,21.49,0,0,0-.09,2.73,1.07,1.07,0,0,0,1.07,1.12H18.44a1.08,1.08,0,0,0,1.06-1.17c0-.6,0-1.21,0-1.81a5.34,5.34,0,0,0-.12-1.09,4.76,4.76,0,0,0-1.53-2.53h4.5a.75.75,0,0,0,.74-.82C23.09,10.7,23.09,10.28,23.08,9.86ZM12,9.9c0,.29,0,.58,0,.88h-.92c0-.29,0-.58,0-.87a4.15,4.15,0,0,0,.46,0A4.16,4.16,0,0,0,12,9.9Z"/></g></g></svg>