<svg xmlns="http://www.w3.org/2000/svg" viewBox="0 0 16.45 16.45"><defs><style>.cls-1{fill:#fff;}</style></defs><title>Asset 11</title><g id="Layer_2" data-name="Layer 2"><g id="Layer_1-2" data-name="Layer 1"><path class="cls-1" d="M9.13,1.82a.21.21,0,0,1-.09,0H1.92c-.1,0-.1,0-.1.09q0,6.31,0,12.61c0,.09,0,.09.09.09H14.53c.1,0,.09,0,.09-.1q0-3.55,0-7.11a.2.2,0,0,1,0-.09l.05,0L16.41,9.1a.13.13,0,0,1,0,.1q0,2.71,0,5.42a1.83,1.83,0,0,1-1.57,1.82l-.28,0H1.85A1.83,1.83,0,0,1,0,14.89a1.8,1.8,0,0,1,0-.29Q0,8.23,0,1.85A1.83,1.83,0,0,1,1.57,0l.29,0H7.25a.13.13,0,0,1,.1,0L9.09,1.78Z"/><path class="cls-1" d="M10.07,0h6.3c.06,0,.08,0,.08.07q0,3.13,0,6.25v.06s0,0-.06,0L14.08,4S14,4,14,4L7.23,10.77c-.05.05-.08,0-.13,0L5.69,9.35c-.06-.06-.06-.06,0-.13l6.73-6.73c.06-.06.06-.06,0-.13L10.13.07,10.06,0Z"/></g></g></svg>