<svg xmlns="http://www.w3.org/2000/svg" viewBox="0 0 59.5 59.5"><defs><style>.cls-1{fill:#333;}</style></defs><title>Asset 1</title><g id="Layer_2" data-name="Layer 2"><g id="Layer_1-2" data-name="Layer 1"><g id="Layer_2-2" data-name="Layer 2"><g id="Layer_1-2-2" data-name="Layer 1-2"><path class="cls-1" d="M29.75,0A29.75,29.75,0,1,0,59.5,29.75,29.75,29.75,0,0,0,29.75,0Zm0,54.5A24.75,24.75,0,1,1,54.5,29.75,24.75,24.75,0,0,1,29.75,54.5Z"/><path class="cls-1" d="M33.08,30l8.7-8.7a2.5,2.5,0,1,0-3.54-3.54l-8.7,8.7L21.68,18.6a2.5,2.5,0,0,0-3.54,3.54L26,30l-8.28,8.28a2.5,2.5,0,1,0,3.54,3.54l8.28-8.28,8.28,8.28a2.5,2.5,0,1,0,3.54-3.54Z"/></g></g></g></g></svg>