<svg xmlns="http://www.w3.org/2000/svg" viewBox="0 0 35.76 30.68"><defs><style>.cls-1{fill:#333;}</style></defs><title>Asset 5</title><g id="Layer_2" data-name="Layer 2"><g id="Layer_1-2" data-name="Layer 1"><path class="cls-1" d="M18.63,18.57a4,4,0,0,1,.41-2A6.84,6.84,0,0,1,20.65,15a5.26,5.26,0,0,0,1.13-1.25,2.73,2.73,0,0,0,.42-1.49,2,2,0,0,0-.48-1.43,1.79,1.79,0,0,0-1.38-.52,1.86,1.86,0,0,0-1.25.44A1.62,1.62,0,0,0,18.57,12H15.74l0-.06A3.43,3.43,0,0,1,17,9a5.27,5.27,0,0,1,3.36-1,5.08,5.08,0,0,1,3.5,1.13,3.91,3.91,0,0,1,1.27,3.07,4,4,0,0,1-.74,2.34,6.62,6.62,0,0,1-1.86,1.8,2.37,2.37,0,0,0-.8.94,3.6,3.6,0,0,0-.19,1.3Zm2.92,4.12H18.62V20.21h2.93Z"/><path class="cls-1" d="M5.07,15.32a15.35,15.35,0,1,1,4,10.36l2.36-2a12.19,12.19,0,0,0,8.9,3.92,12.27,12.27,0,0,0,.26-24.55A12.38,12.38,0,0,0,8.14,15.32M0,15H13.55L6.76,21.72Z"/><line class="cls-1" x1="5.07" y1="15.32" x2="8.14" y2="15.21"/></g></g></svg>