<svg xmlns="http://www.w3.org/2000/svg" viewBox="0 0 28.41 22.86"><defs><style>.cls-1{fill:#e56712;}</style></defs><title>Asset 9</title><g id="Layer_2" data-name="Layer 2"><g id="Layer_1-2" data-name="Layer 1"><path class="cls-1" d="M0,7.43C4.57,4.93,9,2.48,13.5.1A1.82,1.82,0,0,1,15,.23q6.3,3.36,12.53,6.84a1.76,1.76,0,0,1,.88,1.15c.07,3.18,0,6.37,0,9.64H25.86V8.95a59.23,59.23,0,0,0-7,3.89c-3.31,2.46-6.19,2.37-9.54,0-2.75-2-5.93-3.34-8.92-5C.28,7.8.23,7.69,0,7.43Z"/><path class="cls-1" d="M5,13c2.83,1.54,5.45,2.91,8,4.38a2,2,0,0,0,2.21,0c2.53-1.44,5.11-2.81,8-4.37,0,1.72,0,3.25,0,4.76,0,.28-.37.63-.66.79C20,20,17.4,21.4,14.8,22.73a2,2,0,0,1-1.59-.09C10.81,21.4,8.47,20,6.06,18.8A1.74,1.74,0,0,1,5,16.91C5,15.7,5,14.47,5,13Z"/></g></g></svg>