<?xml version="1.0" encoding="utf-8"?>
<!-- Generator: Adobe Illustrator 21.1.0, SVG Export Plug-In . SVG Version: 6.00 Build 0)  -->
<svg version="1.1" id="Layer_1" xmlns="http://www.w3.org/2000/svg" xmlns:xlink="http://www.w3.org/1999/xlink" x="0px" y="0px"
	 viewBox="0 0 72 77.8" style="enable-background:new 0 0 72 77.8;" xml:space="preserve">
<style type="text/css">
	.st0{fill:#F5821B;}
</style>
<title>Asset 2</title>
<path class="st0" d="M48,37.8V12.3L35.9,0L24.2,12.4l0.1,9.4H0v56h72v-40L48,37.8z M16,69.8H8v-7h8V69.8z M16,53.8H8v-7h8V53.8z
	 M16,37.8H8v-8h8V37.8z M40,69.8h-8v-7h8V69.8z M40,53.8h-8v-7h8V53.8z M40,37.8h-8v-8h8V37.8z M40,21.8h-8v-8h8V21.8z M64,69.8h-8
	v-7h8V69.8z M64,53.8h-8v-7h8V53.8z"/>
</svg>
