<svg xmlns="http://www.w3.org/2000/svg" viewBox="0 0 15.86 14.3"><defs><style>.cls-1{fill:#b1b1b1;}</style></defs><title>Asset 9</title><g id="Layer_2" data-name="Layer 2"><g id="Layer_1-2" data-name="Layer 1"><path class="cls-1" d="M4.33,9.26c-.82-3.14.6-5.35,3-7.2.54-.42,1-1,1.48-1.44C9,.4,9.19-.21,9.63.08s1.05.77.92,1.52S10.23,3.37,10,4.23c-.17.6,0,.71.58.7,1.2,0,2.39,0,3.59,0a1.49,1.49,0,0,1,1.69,1.64,5.6,5.6,0,0,1-.53,2.78c-.59,1.24-1.11,2.52-1.63,3.79A1.66,1.66,0,0,1,12,14.28c-2,0-4,0-5.93,0-1.18,0-1.7-.52-1.71-1.69S4.33,10.36,4.33,9.26Z"/><path class="cls-1" d="M0,9.95c0-1.2,0-2.4,0-3.59,0-.51.08-.73.67-.73,2.22,0,2.22-.05,2.22,2.14,0,1.95,0,3.89,0,5.84,0,.47-.08.67-.63.69C0,14.35,0,14.37,0,12.1Q0,11,0,9.95Z"/></g></g></svg>