<svg xmlns="http://www.w3.org/2000/svg" xmlns:xlink="http://www.w3.org/1999/xlink" viewBox="0 0 18.42 15.79"><defs><style>.cls-1{fill:none;}.cls-2{opacity:0.75;}.cls-3{clip-path:url(#clip-path);}.cls-4{fill:#343635;}</style><clipPath id="clip-path"><rect class="cls-1" width="18.42" height="15.79"/></clipPath></defs><title>Asset 8</title><g id="Layer_2" data-name="Layer 2"><g id="Layer_1-2" data-name="Layer 1"><g class="cls-2"><g class="cls-3"><path class="cls-4" d="M13.16,2.64H16.7a1.61,1.61,0,0,1,1.56.94,1.67,1.67,0,0,1,.16.7c0,1.28,0,2.57,0,3.85,0,0,0,.06,0,.09H0s0-.09,0-.13Q0,6.2,0,4.32A1.63,1.63,0,0,1,1.23,2.69a2,2,0,0,1,.52-.05h3.5c0-.07,0-.13,0-.19,0-.53,0-1.07,0-1.6A.93.93,0,0,1,6.17,0H12.1a1,1,0,0,1,1,.56,1.31,1.31,0,0,1,.1.51c0,.46,0,.92,0,1.37ZM11.83,1.33H6.6v1.3h5.24Z"/><path class="cls-4" d="M6.91,9.22V9.4c0,.47,0,.93,0,1.4a.66.66,0,0,0,.7.71H8.75c.66,0,1.32,0,2,0a.71.71,0,0,0,.79-.78c0-.45,0-.9,0-1.34V9.22h6.9s0,.09,0,.14q0,2.36,0,4.73a1.63,1.63,0,0,1-1.22,1.64,1.91,1.91,0,0,1-.52.06H1.74a1.62,1.62,0,0,1-1.57-.95,1.66,1.66,0,0,1-.16-.7c0-1.61,0-3.23,0-4.85,0,0,0,0,0-.07Z"/><path class="cls-4" d="M10.53,10.52H7.9V10c0-.22,0-.43,0-.65s0-.12.11-.12h2.41s.1.05.1.08c0,.4,0,.8,0,1.22"/></g></g></g></g></svg>