<svg xmlns="http://www.w3.org/2000/svg" viewBox="0 0 28.78 22.06"><defs><style>.cls-1{fill:#fff;}</style></defs><title>Asset 6</title><g id="Layer_2" data-name="Layer 2"><g id="Layer_1-2" data-name="Layer 1"><path class="cls-1" d="M12.44,2.59q-1.54,1-2.86,2a15.6,15.6,0,0,0-2.29,2A8.5,8.5,0,0,0,5.78,8.88a6.83,6.83,0,0,0-.55,2.81,5,5,0,0,0,.09.94q.09.46.22,1a3.59,3.59,0,0,1,1-.48,4.85,4.85,0,0,1,1.63-.26,3.42,3.42,0,0,1,2.88,1.27,4.86,4.86,0,0,1,1,3.08,4.55,4.55,0,0,1-.4,1.89,4.77,4.77,0,0,1-1.1,1.54,5.27,5.27,0,0,1-1.6,1,5,5,0,0,1-2,.37,6.54,6.54,0,0,1-3.12-.7,6.84,6.84,0,0,1-2.17-1.78A7.37,7.37,0,0,1,.42,17.18,8.43,8.43,0,0,1,0,14.63,15.09,15.09,0,0,1,.83,9.36a13.19,13.19,0,0,1,2.29-4,16.26,16.26,0,0,1,3.34-3q1.89-1.27,4-2.42Zm16.35,0q-1.54,1-2.86,2a15.6,15.6,0,0,0-2.29,2,8.5,8.5,0,0,0-1.52,2.29,6.83,6.83,0,0,0-.55,2.81,5,5,0,0,0,.09.94q.09.46.22,1a3.59,3.59,0,0,1,1-.48,4.85,4.85,0,0,1,1.63-.26,3.42,3.42,0,0,1,2.88,1.27,4.86,4.86,0,0,1,1,3.08,4.55,4.55,0,0,1-.4,1.89,4.77,4.77,0,0,1-1.1,1.54,5.27,5.27,0,0,1-1.6,1,5,5,0,0,1-2,.37,6.54,6.54,0,0,1-3.12-.7A6.84,6.84,0,0,1,18,19.58a7.37,7.37,0,0,1-1.28-2.39,8.43,8.43,0,0,1-.42-2.55,15.09,15.09,0,0,1,.83-5.27,13.19,13.19,0,0,1,2.29-4,16.26,16.26,0,0,1,3.34-3q1.89-1.27,4-2.42Z"/></g></g></svg>