<svg xmlns="http://www.w3.org/2000/svg" xmlns:xlink="http://www.w3.org/1999/xlink" viewBox="0 0 59.5 59.5"><defs><style>.cls-1{fill:none;}.cls-2{fill:#333;}.cls-3{opacity:0.75;}.cls-4{clip-path:url(#clip-path);}.cls-5{clip-path:url(#clip-path-2);}</style><clipPath id="clip-path"><rect class="cls-1" x="35.6" y="17.5" width="6.4" height="6.36"/></clipPath><clipPath id="clip-path-2"><rect class="cls-1" x="17.5" y="21.85" width="20.2" height="20.15"/></clipPath></defs><title>Asset 1</title><g id="Layer_2" data-name="Layer 2"><g id="Layer_1-2" data-name="Layer 1"><path class="cls-2" d="M29.75,59.5A29.75,29.75,0,1,1,59.5,29.75,29.78,29.78,0,0,1,29.75,59.5Zm0-54.5A24.75,24.75,0,1,0,54.5,29.75,24.78,24.78,0,0,0,29.75,5Z"/><g class="cls-3"><g class="cls-4"><path d="M35.6,18.7l.77-.77a1.47,1.47,0,0,1,2.07,0l3.13,3.14a1.47,1.47,0,0,1,0,2.07l-.72.72"/></g></g><g class="cls-3"><g class="cls-5"><path d="M37.7,27,24.15,40.55a1.47,1.47,0,0,1-.76.4l-5.32,1a.49.49,0,0,1-.57-.57l1-5.32a1.47,1.47,0,0,1,.4-.76L32.44,21.85"/></g></g></g></g></svg>