<svg xmlns="http://www.w3.org/2000/svg" viewBox="0 0 16.38 16.43"><defs><style>.cls-1{fill:#727170;}</style></defs><title>Asset 2</title><g id="Layer_2" data-name="Layer 2"><g id="Layer_1-2" data-name="Layer 1"><path class="cls-1" d="M16.36,13.94c0,2.55-.19,2.71-2.73,2.34A15.4,15.4,0,0,1,.1,2.73,10.07,10.07,0,0,1,0,1.48C0,.25.2,0,1.43,0,2.23,0,3,0,3.82,0A1,1,0,0,1,5,1.18a2.47,2.47,0,0,0,.06.9A3.45,3.45,0,0,1,3.71,6.67c-.38.26-.36.58-.13,1A13.94,13.94,0,0,0,8.75,12.8a.67.67,0,0,0,1-.15c.12-.14.28-.26.39-.41a2.58,2.58,0,0,1,3.4-1.07,2.28,2.28,0,0,0,.55.12C16.36,11.66,16.36,11.66,16.36,13.94Z"/><path class="cls-1" d="M8.18,9.15c0-3.07,0-5.75,0-8.44,0-.54.16-.72.71-.72,2.27,0,4.54,0,6.81,0,.45,0,.69.09.69.62,0,1.7,0,3.41,0,5.11,0,.61-.29.66-.77.65-1.17,0-2.35.05-3.52,0A2.29,2.29,0,0,0,10,7.24C9.52,7.84,8.94,8.37,8.18,9.15Z"/></g></g></svg>