<svg xmlns="http://www.w3.org/2000/svg" viewBox="0 0 20.06 23.46"><defs><style>.cls-1{fill:#fff;}</style></defs><title>Asset 1</title><g id="Layer_2" data-name="Layer 2"><g id="Layer_1-2" data-name="Layer 1"><path class="cls-1" d="M10.43,0a11.2,11.2,0,0,1,6.46,1.61,5.48,5.48,0,0,1,2.32,4.82,5.09,5.09,0,0,1-.86,2.91,5.21,5.21,0,0,1-2.5,1.93A5,5,0,0,1,19,13.2a5.77,5.77,0,0,1,1.05,3.43,6.07,6.07,0,0,1-2.22,5.1,10,10,0,0,1-6.3,1.73H0V20.64l2.5-.48V3.32L0,2.84V0H10.43ZM7.2,9.83h3.38a4.7,4.7,0,0,0,2.9-.77,2.66,2.66,0,0,0,1-2.26,2.82,2.82,0,0,0-1-2.4,5,5,0,0,0-3.05-.77H7.2Zm0,3.25v6.77h4.33A4.37,4.37,0,0,0,14.39,19a3,3,0,0,0,1-2.41A3.76,3.76,0,0,0,14.53,14a3.43,3.43,0,0,0-2.64-.91Z"/></g></g></svg>