<?xml version="1.0" encoding="utf-8"?>
<!-- Generator: Adobe Illustrator 21.1.0, SVG Export Plug-In . SVG Version: 6.00 Build 0)  -->
<svg version="1.1" id="Layer_1" xmlns="http://www.w3.org/2000/svg" xmlns:xlink="http://www.w3.org/1999/xlink" x="0px" y="0px"
	 viewBox="0 0 23.5 23.5" style="enable-background:new 0 0 23.5 23.5;" xml:space="preserve">
<style type="text/css">
	.st0{fill:#E0E0E0;}
</style>
<title>Asset 3</title>
<g>
	<path class="st0" d="M11.8,23.5C5.3,23.5,0,18.2,0,11.7S5.3,0,11.8,0c6.5,0,11.8,5.3,11.8,11.8S18.2,23.5,11.8,23.5z M11.8,1
		C5.8,1,1,5.8,1,11.7c0,5.9,4.8,10.8,10.8,10.8s10.8-4.8,10.8-10.8C22.5,5.8,17.7,1,11.8,1z"/>
</g>
<path class="st0" d="M16.6,8.2l-1.3-1.3c0,0,0,0,0,0c-0.2-0.2-0.6-0.2-0.8,0l-0.3,0.3l2.2,2.1L16.6,9c0,0,0,0,0,0
	C16.9,8.8,16.9,8.4,16.6,8.2z"/>
<path class="st0" d="M12.9,8.5L7.3,14c-0.1,0.1-0.1,0.2-0.2,0.3l-0.4,2.2c0,0,0,0.1,0,0.1c0,0.1,0.1,0.2,0.2,0.1l2.2-0.4
	c0.1,0,0.2-0.1,0.3-0.2l5.6-5.6L12.9,8.5z"/>
</svg>
