<svg xmlns="http://www.w3.org/2000/svg" viewBox="0 0 16.28 16.29"><defs><style>.cls-1{fill:#727170;}</style></defs><title>Asset 3</title><g id="Layer_2" data-name="Layer 2"><g id="Layer_1-2" data-name="Layer 1"><path class="cls-1" d="M0,16.29C0,11.24,0,6.5,0,1.77A1.6,1.6,0,0,1,1.79,0Q8.13,0,14.48,0a1.6,1.6,0,0,1,1.78,1.75q0,4.72,0,9.44c0,1.22-.65,1.81-1.94,1.81-3.42,0-6.84,0-10.25,0a1.74,1.74,0,0,0-1.42.59C1.86,14.46,1,15.27,0,16.29ZM9.79,4.89c.85,0,1.69,0,2.54,0,.64,0,.72-.26.7-.78s0-.9-.71-.88c-1.66.06-3.31,0-5,0-.65,0-.86.15-.87.83s.25.85.88.82C8.17,4.85,9,4.89,9.79,4.89Zm0,.81c-.85,0-1.69,0-2.54,0-.64,0-.81.19-.79.8s0,.88.73.86q2.53-.08,5.07,0C13,7.37,13,7,13,6.49s-.14-.85-.79-.8C11.44,5.74,10.62,5.7,9.81,5.7ZM8.51,8.14c-.47,0-.95,0-1.42,0-.76-.06-.56.47-.59.87s0,.8.59.77c.94,0,1.89,0,2.84,0,.47,0,.63-.13.65-.62,0-.74-.11-1.16-1-1A7.21,7.21,0,0,1,8.51,8.14ZM4,3.28c-.75-.18-.79.24-.81.84s.19.79.8.79.88-.13.87-.83S4.73,3.12,4,3.28Zm-.77,3.2c-.14.66.1.91.79.87S5,7.3,4.9,6.6c0-.54,0-1-.77-.92C3.56,5.73,3.08,5.7,3.27,6.47Zm.85,3.26c.75.27.75-.21.78-.8s-.13-.83-.78-.81-.92.08-.89.81S3.35,9.92,4.12,9.73Z"/></g></g></svg>