<svg xmlns="http://www.w3.org/2000/svg" viewBox="0 0 11.54 25.46"><defs><style>.cls-1{fill:#fff;}</style></defs><title>Asset 2</title><g id="Layer_2" data-name="Layer 2"><g id="Layer_1-2" data-name="Layer 1"><path class="cls-1" d="M10.21,20.6A12.37,12.37,0,0,1,8,23.81a4.87,4.87,0,0,1-3.76,1.64A3.12,3.12,0,0,1,2,24.71a2.42,2.42,0,0,1-.76-1.78A9.3,9.3,0,0,1,1.88,20l2.33-6.38a4.09,4.09,0,0,0,.34-1.17A.56.56,0,0,0,4,11.94q-.61,0-1.35,1a10,10,0,0,0-1.09,1.72H0a9.34,9.34,0,0,1,2.77-3.69A5.59,5.59,0,0,1,6.18,9.61a3.22,3.22,0,0,1,2,.59,1.86,1.86,0,0,1,.79,1.56,5.83,5.83,0,0,1-.4,2.08L5.73,21.41a3.84,3.84,0,0,0-.29,1.27.66.66,0,0,0,.17.42.48.48,0,0,0,.37.21,1.64,1.64,0,0,0,1.12-.58A10.41,10.41,0,0,0,8.54,20.6ZM11.54,2.33A2.28,2.28,0,0,1,10.85,4,2.33,2.33,0,0,1,7.52,4a2.31,2.31,0,0,1-.68-1.67A2.27,2.27,0,0,1,7.52.7,2.39,2.39,0,0,1,10.4.32a2.35,2.35,0,0,1,.84.83A2.26,2.26,0,0,1,11.54,2.33Z"/></g></g></svg>