<svg xmlns="http://www.w3.org/2000/svg" viewBox="0 0 20.08 16.31"><defs><style>.cls-1{fill:#727170;}</style></defs><title>Asset 1</title><g id="Layer_2" data-name="Layer 2"><g id="Layer_1-2" data-name="Layer 1"><path class="cls-1" d="M0,5.32C3.23,3.56,6.38,1.85,9.52.12a1,1,0,0,1,1.05.11c2.95,1.61,5.9,3.23,8.86,4.82a1,1,0,0,1,.65,1.07c0,2-.06,3.9,0,5.85,0,.85-.42.79-1,.81s-.91-.07-.89-.79c0-1.78,0-3.57,0-5.56a41.24,41.24,0,0,0-4.93,2.73c-2.34,1.74-4.38,1.68-6.74,0A61.11,61.11,0,0,0,.26,5.62C.2,5.58.16,5.51,0,5.32Z"/><path class="cls-1" d="M3.52,9.25c1.65.9,3.16,1.57,4.51,2.5a3.05,3.05,0,0,0,3.9,0c1.34-.91,2.85-1.59,4.46-2.46,0,1.18,0,2.2,0,3.21,0,.44-.25.59-.56.76-1.78,1-3.56,1.93-5.33,2.92a1,1,0,0,1-1.16,0c-1.73-1-3.48-1.92-5.23-2.86-.35-.19-.63-.36-.61-.85C3.55,11.42,3.52,10.44,3.52,9.25Z"/></g></g></svg>