<svg xmlns="http://www.w3.org/2000/svg" viewBox="0 0 24.94 24.79"><defs><style>.cls-1{fill:#e56712;}</style></defs><title>Asset 5</title><g id="Layer_2" data-name="Layer 2"><g id="Layer_1-2" data-name="Layer 1"><path class="cls-1" d="M.28,12.24V5.57A2,2,0,0,1,2.67,7.2,2.8,2.8,0,0,0,5.28,9.48c1.5.28,3,.77,4.65,1.22V0c1.93-.15,2.79.64,3.23,2.37.75,3,1.7,5.92,2.69,8.84a2.66,2.66,0,0,0,1.48,1.43c1.82.63,3.7,1.06,5.56,1.56,1.23.33,2,1.09,1.7,2.39S23.26,18.38,21.9,18Z"/><path class="cls-1" d="M0,22.34H24.94v2.45H0Z"/></g></g></svg>