<svg xmlns="http://www.w3.org/2000/svg" viewBox="0 0 23.6 23.5"><defs><style>.cls-1{fill:#b1b1b1;}</style></defs><title>Asset 1</title><g id="Layer_2" data-name="Layer 2"><g id="Layer_1-2" data-name="Layer 1"><path class="cls-1" d="M11.8,0A11.8,11.8,0,0,0,0,11.7a11.8,11.8,0,0,0,23.6,0A11.8,11.8,0,0,0,11.8,0Zm0,22.5A10.75,10.75,0,1,1,22.6,11.8,10.86,10.86,0,0,1,11.8,22.5Z"/><polygon class="cls-1" points="15.6 7.2 11.7 11.1 8 7.5 7.3 8.2 11 11.8 7.2 15.6 7.9 16.3 11.7 12.5 15.5 16.3 16.2 15.6 12.4 11.8 16.3 7.9 15.6 7.2"/></g></g></svg>