<svg xmlns="http://www.w3.org/2000/svg" viewBox="0 0 81 69"><defs><style>.cls-1{fill:#f5821b;}.cls-2{fill:#fff;}</style></defs><title>Asset 3</title><g id="Layer_2" data-name="Layer 2"><g id="Layer_1-2" data-name="Layer 1"><path class="cls-1" d="M50,21V0H0V69H81V21ZM77,65H50V25H77Z"/><rect class="cls-2" x="32.65" y="6.56" width="8" height="8"/><rect class="cls-2" x="8.65" y="22.56" width="8" height="8"/><rect class="cls-2" x="8.65" y="6.56" width="8" height="8"/><rect class="cls-2" x="32.65" y="22.56" width="8" height="8"/><rect class="cls-2" x="32.65" y="39.06" width="8" height="8"/><rect class="cls-1" x="50.15" y="30.81" width="8" height="8"/><rect class="cls-1" x="50.15" y="47.06" width="8" height="8"/><rect class="cls-1" x="63.65" y="30.81" width="8" height="8"/><rect class="cls-1" x="63.65" y="47.06" width="8" height="8"/><rect class="cls-2" x="8.65" y="39.06" width="8" height="8"/><rect class="cls-2" x="8.65" y="55.06" width="8" height="8"/><rect class="cls-2" x="32.65" y="55.06" width="8" height="8"/></g></g></svg>