<svg xmlns="http://www.w3.org/2000/svg" viewBox="0 0 22.21 15.31"><defs><style>.cls-1{fill:#b1b1b1;}</style></defs><title>Asset 16</title><g id="Layer_2" data-name="Layer 2"><g id="Layer_1-2" data-name="Layer 1"><path class="cls-1" d="M11.09,15.31A12.19,12.19,0,0,1,.24,8.46a1.62,1.62,0,0,1,0-1.66c2.34-4.4,6-6.83,11-6.8S19.69,2.47,22,6.82a1.62,1.62,0,0,1,0,1.66A12.17,12.17,0,0,1,11.09,15.31Zm0-2.59A5.1,5.1,0,1,0,6,7.61,5.12,5.12,0,0,0,11.09,12.72Z"/><path class="cls-1" d="M11.08,10.68a3.06,3.06,0,1,1,3.08-3.06A3.08,3.08,0,0,1,11.08,10.68Z"/></g></g></svg>