<svg xmlns="http://www.w3.org/2000/svg" viewBox="0 0 33.02 6.8"><defs><style>.cls-1{fill:#fff;}</style></defs><title>Asset 9</title><g id="Layer_2" data-name="Layer 2"><g id="Layer_1-2" data-name="Layer 1"><path class="cls-1" d="M0,3.4A3.46,3.46,0,0,1,.93,1.06,3.12,3.12,0,0,1,3.4,0,3.16,3.16,0,0,1,5.85,1a3.39,3.39,0,0,1,0,4.7,3.16,3.16,0,0,1-2.45,1A3.21,3.21,0,0,1,1,5.78,3.36,3.36,0,0,1,0,3.4Z"/><path class="cls-1" d="M13.11,3.4A3.46,3.46,0,0,1,14,1.06,3.12,3.12,0,0,1,16.51,0,3.16,3.16,0,0,1,19,1a3.39,3.39,0,0,1,0,4.7,3.16,3.16,0,0,1-2.45,1,3.21,3.21,0,0,1-2.44-1A3.36,3.36,0,0,1,13.11,3.4Z"/><path class="cls-1" d="M26.22,3.4a3.46,3.46,0,0,1,.93-2.34A3.12,3.12,0,0,1,29.62,0a3.16,3.16,0,0,1,2.45,1,3.39,3.39,0,0,1,0,4.7,3.16,3.16,0,0,1-2.45,1,3.21,3.21,0,0,1-2.44-1A3.36,3.36,0,0,1,26.22,3.4Z"/></g></g></svg>