<svg xmlns="http://www.w3.org/2000/svg" viewBox="0 0 88.79 56.05"><defs><style>.cls-1{fill:#f5821b;}</style></defs><title>Asset 5</title><g id="Layer_2" data-name="Layer 2"><g id="Layer_1-2" data-name="Layer 1"><path class="cls-1" d="M28.1,56c-8,0-16-.09-24,.05C1.31,56.09,0,55.67,0,52.33-.06,41.81,2,38.61,12,35A45.11,45.11,0,0,1,48.32,36.8c7.24,3.51,9.82,9.83,7.8,17.54-.61,2.31-2.22,1.61-3.53,1.62C44.43,56,36.26,56,28.1,56Z"/><path class="cls-1" d="M57.24,32.08A46.15,46.15,0,0,1,81.4,37.35a14.47,14.47,0,0,1,6.68,17.17A1.88,1.88,0,0,1,85.91,56c-6.49,0-13-.05-19.46,0-3.14,0-2.28-2.19-2.33-3.83C63.79,40.48,63.81,40.48,57.24,32.08Z"/><path class="cls-1" d="M28,24A12.09,12.09,0,0,1,16.11,11.73,12,12,0,0,1,40,12,12.1,12.1,0,0,1,28,24Z"/><path class="cls-1" d="M48.11,11.78A12,12,0,0,1,72,11.94a12,12,0,1,1-23.93-.15Z"/></g></g></svg>