<svg xmlns="http://www.w3.org/2000/svg" viewBox="0 0 23.51 22.34"><defs><style>.cls-1{fill:#e56712;}</style></defs><title>Asset 7</title><g id="Layer_2" data-name="Layer 2"><g id="Layer_1-2" data-name="Layer 1"><path class="cls-1" d="M7.06,4.71c0-.73,0-1.3,0-1.88C7.09.84,7.92,0,9.95,0c1.22,0,2.45,0,3.67,0,2,0,2.81.85,2.84,2.88,0,.54,0,1.07,0,1.82,1.45,0,2.85,0,4.25,0,1.93,0,2.79.86,2.8,2.76q0,6,0,12c0,1.93-.85,2.81-2.75,2.82q-9,0-18.05,0C.88,22.32,0,21.43,0,19.6Q0,13.51,0,7.42c0-1.83.88-2.68,2.7-2.71C4.09,4.69,5.45,4.71,7.06,4.71Zm2.4-.12H14V2.45H9.46Z"/></g></g></svg>