<svg xmlns="http://www.w3.org/2000/svg" viewBox="0 0 17.59 23.35"><defs><style>.cls-1{fill:#343635;}.cls-2{fill:none;}</style></defs><title>Asset 3</title><g id="Layer_2" data-name="Layer 2"><g id="Layer_1-2" data-name="Layer 1"><path class="cls-1" d="M5.42,7.38H6.5l-.28,2h5.17c.17-.39,0-.61-.64-.6-1.37,0-2.74,0-4.23,0a6.34,6.34,0,0,1,.36-.67c1.78-2.5,3.56-5,5.37-7.49A1.31,1.31,0,0,1,13.08,0C14.54,0,16,0,17.59,0c-.18.3-.3.53-.45.74-1.48,2.08-3,4.13-4.42,6.26a5.92,5.92,0,0,0-.46,2c-.18.82.29,1.22.9,1.68A7.07,7.07,0,0,1,14,21.19a7.16,7.16,0,0,1-10.22,0,7,7,0,0,1,.69-10.48,2.15,2.15,0,0,0,1-2.2,10,10,0,0,1,0-1.15M15,16.27a6.21,6.21,0,1,0-6.22,6.2A6.23,6.23,0,0,0,15,16.27"/><path class="cls-1" d="M0,0C1.69,0,3.19,0,4.7,0a.88.88,0,0,1,.57.35C6.23,1.67,7.16,3,8.1,4.3a.93.93,0,0,1,.21.39c0,.48-1.48,2.09-2,2.15A2.09,2.09,0,0,1,4.08,5.78C2.83,3.86,1.44,2,0,0"/><path class="cls-1" d="M6,20.37c.2-.75.38-1.5.61-2.24A.88.88,0,0,0,6.23,17c-.65-.45-1.25-1-1.87-1.49l.11-.32c.79-.05,1.59-.14,2.38-.14a.87.87,0,0,0,1-.71c.22-.74.54-1.45.81-2.18l.34,0A15.56,15.56,0,0,1,9.71,14c.21.79.57,1.17,1.45,1.1a15.6,15.6,0,0,1,2.22.14c-.31.37-.45.67-.69.8-1.54.84-2,2-1.18,3.61a4.48,4.48,0,0,1,.18,1.13c-.64-.38-1-.61-1.44-.86-1.41-.93-1.41-.93-2.86,0-.37.24-.75.45-1.13.67L6,20.37"/><rect class="cls-2" width="17.58" height="23.35"/></g></g></svg>