<svg xmlns="http://www.w3.org/2000/svg" viewBox="0 0 14.4 14.25"><defs><style>.cls-1{fill:#b1b1b1;}</style></defs><title>Asset 10</title><g id="Layer_2" data-name="Layer 2"><g id="Layer_1-2" data-name="Layer 1"><path class="cls-1" d="M0,14.17Q0,13.6,0,13,0,7.41,0,1.8C0,.51.51,0,1.79,0H12.57c1.3,0,1.82.5,1.82,1.77q0,4,0,8c0,1.23-.52,1.75-1.75,1.75-3,0-6,0-9.07,0A1.43,1.43,0,0,0,2.39,12C1.69,12.76.94,13.5.22,14.25ZM7.15,4.32c1.23,0,2.46,0,3.68,0,.57,0,.72-.17.7-.71s0-.77-.65-.76q-3.68.06-7.36,0c-.63,0-.63.29-.65.76s.13.73.7.71C4.76,4.29,6,4.32,7.15,4.32Zm0,2.16c1.23,0,2.46,0,3.68,0,.6,0,.75-.18.75-.75S11.4,5,10.84,5q-3.64,0-7.27,0c-.57,0-.7.17-.7.71s.14.78.74.76C4.77,6.45,5.94,6.48,7.11,6.48ZM5.71,8.64c.75,0,1.5,0,2.24,0,.57,0,.71-.17.69-.71s0-.78-.65-.75q-2.24.07-4.49,0c-.64,0-.62.3-.65.76s.13.75.7.71S5,8.64,5.71,8.64Z"/></g></g></svg>