<svg xmlns="http://www.w3.org/2000/svg" viewBox="0 0 16.85 18.75"><defs><style>.cls-1{fill:#727170;}</style></defs><title>Asset 1</title><g id="Layer_2" data-name="Layer 2"><g id="Layer_1-2" data-name="Layer 1"><path class="cls-1" d="M16.85,10.3c0,2,0,4.05,0,6.08,0,1.7-.65,2.37-2.3,2.37H2.27C.67,18.74,0,18.07,0,16.46Q0,10.38,0,4.3C0,2.62.5,2,2.16,1.93c.77,0,.69-.48.64-.92C2.72.26,3,0,3.75,0s1.05.27.93,1,.17.93.9.91c1.87-.05,3.74,0,5.61,0,.72,0,1.12-.13,1-.94s.22-1,1-1,1,.17.91.91.09,1,.91,1c1.23,0,1.87.77,1.89,2C16.86,6.09,16.85,8.19,16.85,10.3ZM8.42,6.58c-1.87,0-3.74,0-5.61,0-.65,0-1,.08-1,.87,0,2.88,0,5.76,0,8.65,0,.6.15.81.78.81q5.78,0,11.57,0c.63,0,.78-.22.78-.81,0-2.88,0-5.76,0-8.65,0-.79-.32-.87-1-.86C12.16,6.6,10.29,6.58,8.42,6.58Z"/><path class="cls-1" d="M4.69,8.48c.84-.2.91.25,1,1,0,.86-.36.89-1,.92s-.88-.27-.89-.94S3.89,8.29,4.69,8.48Z"/><path class="cls-1" d="M8.56,8.47c1-.24.74.5.81,1.05.13,1-.57.74-1.11.81-.91.12-.72-.5-.79-1C7.36,8.4,7.89,8.38,8.56,8.47Z"/><path class="cls-1" d="M13.08,9.37c.18.79-.17,1-.92,1s-.95-.28-1-1,.19-.94.91-.92S13.29,8.52,13.08,9.37Z"/></g></g></svg>