<svg xmlns="http://www.w3.org/2000/svg" viewBox="0 0 79.99 79.99"><defs><style>.cls-1{fill:#f5821b;}</style></defs><title>Asset 4</title><g id="Layer_2" data-name="Layer 2"><g id="Layer_1-2" data-name="Layer 1"><path class="cls-1" d="M39.92,80A40,40,0,1,1,80,40.06,40,40,0,0,1,39.92,80ZM72,42C71.93,28.32,65.21,17,55.43,12c-1.1-.55-2.87-2.82-3.48.61-1,5.65-4.77,7.87-10.08,7.26-4.76-.54-6.66.92-5.93,5.85.65,4.4-1.49,6.59-6,6.23-1-.08-2,.1-3,0-3.17-.4-3,1.68-2.91,3.76s-.82,4.49,2.9,4.31c4.48-.22,9,0,13.47-.05C52.32,39.93,52.2,39.13,52,51.67c0,.5.05,1,0,1.5-.25,2.13.6,3,2.8,2.85,2.81-.26,5.55.42,7.09,2.8,1.9,2.93,2.86,1.52,4.15-.32C70,52.88,72,46.66,72,42ZM35.86,67.44c.45-1.8.27-3.18-2.18-3.91-4-1.18-5.85-4.25-5.65-8.39a6.35,6.35,0,0,0-2.12-5.29c-4.8-4.62-9.44-9.41-14.18-14.09-.68-.67-1.65-1.68-2.35-1.57C8,34.4,8.24,36,8.1,37.06,6.25,51.82,17.27,67.45,31.86,70.95,34.93,71.68,36.78,71.42,35.86,67.44Z"/></g></g></svg>