<svg xmlns="http://www.w3.org/2000/svg" xmlns:xlink="http://www.w3.org/1999/xlink" viewBox="0 0 21.76 17.14"><defs><style>.cls-1{fill:none;}.cls-2{opacity:0.75;}.cls-3{clip-path:url(#clip-path);}.cls-4{fill:#343635;}.cls-5{clip-path:url(#clip-path-2);}.cls-6{clip-path:url(#clip-path-3);}.cls-7{clip-path:url(#clip-path-4);}.cls-8{clip-path:url(#clip-path-5);}</style><clipPath id="clip-path" transform="translate(0 0)"><rect class="cls-1" y="9.37" width="15.92" height="7.78"/></clipPath><clipPath id="clip-path-2" transform="translate(0 0)"><path class="cls-1" d="M7.93,11.52Z"/></clipPath><clipPath id="clip-path-3" transform="translate(0 0)"><rect class="cls-1" x="3.69" width="8.52" height="8.55"/></clipPath><clipPath id="clip-path-4" transform="translate(0 0)"><rect class="cls-1" x="19.73" y="0.42" width="2.03" height="2.01"/></clipPath><clipPath id="clip-path-5" transform="translate(0 0)"><rect class="cls-1" x="13.99" y="1.8" width="6.4" height="6.39"/></clipPath></defs><title>Asset 13</title><g id="Layer_2" data-name="Layer 2"><g id="Layer_1-2" data-name="Layer 1"><g class="cls-2"><g class="cls-3"><path class="cls-4" d="M1.07,17.15A1.07,1.07,0,0,1,0,16,21.51,21.51,0,0,1,.09,13.3,4.72,4.72,0,0,1,4.75,9.37c2.11,0,4.21,0,6.32,0a4.75,4.75,0,0,1,4.72,3.7,5.34,5.34,0,0,1,.12,1.09c0,.6,0,1.21,0,1.81a1.08,1.08,0,0,1-1.06,1.17" transform="translate(0 0)"/></g></g><g class="cls-2"><g class="cls-5"><line class="cls-4" x1="7.93" y1="11.52" x2="7.93" y2="11.52"/></g></g><g class="cls-2"><g class="cls-6"><path class="cls-4" d="M12.21,4.28A4.26,4.26,0,1,1,8,0a4.27,4.27,0,0,1,4.25,4.27" transform="translate(0 0)"/></g></g><g class="cls-2"><g class="cls-7"><path class="cls-4" d="M19.73.8,20,.55a.46.46,0,0,1,.66,0l1,1a.47.47,0,0,1,0,.66l-.23.23" transform="translate(0 0)"/></g></g><g class="cls-2"><g class="cls-8"><path class="cls-4" d="M20.39,3.43,16.1,7.73a.46.46,0,0,1-.24.13l-1.69.33A.15.15,0,0,1,14,8l.33-1.69a.46.46,0,0,1,.13-.24L18.73,1.8" transform="translate(0 0)"/></g></g></g></g></svg>