<?xml version="1.0" encoding="utf-8"?>
<!-- Generator: Adobe Illustrator 21.1.0, SVG Export Plug-In . SVG Version: 6.00 Build 0)  -->
<svg version="1.1" id="Layer_1" xmlns="http://www.w3.org/2000/svg" xmlns:xlink="http://www.w3.org/1999/xlink" x="0px" y="0px"
	 viewBox="0 0 15.1 17" style="enable-background:new 0 0 15.1 17;" xml:space="preserve">
<style type="text/css">
	.st0{fill:none;}
	.st1{fill:#343635;}
</style>
<title>Asset 2</title>
<rect y="0" class="st0" width="15.1" height="2"/>
<g>
	<g>
		<path class="st1" d="M14.1,2H1C0.4,2,0,1.6,0,1s0.4-1,1-1h13.1c0.6,0,1,0.4,1,1S14.7,2,14.1,2z"/>
	</g>
</g>
<rect x="1.9" y="7.5" class="st0" width="13.2" height="2"/>
<g>
	<g>
		<path class="st1" d="M14.1,9.5H2.9c-0.6,0-1-0.4-1-1s0.4-1,1-1h11.2c0.6,0,1,0.4,1,1S14.7,9.5,14.1,9.5z"/>
	</g>
</g>
<rect x="5.6" y="15" class="st0" width="9.5" height="2"/>
<g>
	<g>
		<path class="st1" d="M14.1,17H6.6c-0.6,0-1-0.4-1-1c0-0.6,0.4-1,1-1h7.5c0.6,0,1,0.4,1,1C15.1,16.6,14.7,17,14.1,17z"/>
	</g>
</g>
</svg>
