<svg xmlns="http://www.w3.org/2000/svg" xmlns:xlink="http://www.w3.org/1999/xlink" viewBox="0 0 11.71 15.79"><defs><style>.cls-1{fill:none;}.cls-2{opacity:0.75;}.cls-3{clip-path:url(#clip-path);}.cls-4{fill:#343635;}</style><clipPath id="clip-path"><rect class="cls-1" width="11.71" height="15.79"/></clipPath></defs><title>Asset 7</title><g id="Layer_2" data-name="Layer 2"><g id="Layer_1-2" data-name="Layer 1"><g class="cls-2"><g class="cls-3"><path class="cls-4" d="M0,3.86a2.44,2.44,0,0,1,1.3-2.29c.26-.17.43-.19.61.12.6,1.06,1.22,2.1,1.84,3.15a.41.41,0,0,1,0,.56,2.32,2.32,0,0,0-.37,2.24,6.74,6.74,0,0,0,1.85,3.16,1.82,1.82,0,0,0,2,.58c.27-.1.34.06.44.22.63,1.06,1.25,2.14,1.89,3.19.17.28.09.4-.15.55a2.53,2.53,0,0,1-3-.13A16.8,16.8,0,0,1,1.14,8.4,11.06,11.06,0,0,1,0,3.86"/><path class="cls-4" d="M3.53,0a.84.84,0,0,1,.73.45c.58,1,1.17,2,1.71,3,.31.59.13.95-.6,1.36s-1,.32-1.36-.25c-.59-1-1.15-1.95-1.68-2.94A1.19,1.19,0,0,1,3.53,0"/><path class="cls-4" d="M11.7,13.76a.86.86,0,0,1-.7,1c-.41.13-.91.4-1.24-.16-.6-1-1.22-2.06-1.77-3.12-.29-.56,0-.92.66-1.35a.82.82,0,0,1,1.27.23c.61,1,1.16,2,1.72,3a.66.66,0,0,1,.06.43"/></g></g></g></g></svg>