<svg xmlns="http://www.w3.org/2000/svg" viewBox="0 0 9.5 18.98"><defs><style>.cls-1{fill:#343635;}</style></defs><title>Asset 4</title><g id="Layer_2" data-name="Layer 2"><g id="Layer_1-2" data-name="Layer 1"><path class="cls-1" d="M8,5.58c1.31-.69,1.43.28,1.44,1.13,0,2.62.13,5.26-.09,7.86A4.45,4.45,0,0,1,4.73,19,4.41,4.41,0,0,1,.15,14.52C-.07,11.15,0,7.75.06,4.37.1,1.62,1.47,0,3.63,0S7,1.46,7.18,4.29c0,.25,0,.51,0,.76a44,44,0,0,0-.06,7.26,2.18,2.18,0,0,1-2.72,2c-1.56-.25-2-1.44-2-2.83s0-2.89,0-4.33c0-.76-.41-2,.86-2C4.4,5.19,4,6.35,4,7c.06,1.44,0,2.89,0,4.33,0,.6,0,1.31.87,1.25s.59-.73.59-1.2c0-2.55,0-5.09,0-7.64,0-1.18-.57-2-1.75-2.11-1.37-.07-1.95.86-2,2.14,0,3.48,0,7,0,10.44,0,1.89,1,3.1,3,3.09,1.81,0,2.75-1.13,2.88-2.91.05-.67,0-1.35,0-2,.58-2.25.12-4.54.28-6.81"/></g></g></svg>