<svg xmlns="http://www.w3.org/2000/svg" viewBox="0 0 24 24"><defs><style>.cls-1{fill:#fff;}</style></defs><title>Asset 3</title><g id="Layer_2" data-name="Layer 2"><g id="Layer_1-2" data-name="Layer 1"><path class="cls-1" d="M22.67,9.87l-6.4,6.4a4.53,4.53,0,0,1-6.4,0L7.73,14.13,9.87,12,12,14.13a1.51,1.51,0,0,0,2.13,0l6.4-6.4a1.51,1.51,0,0,0,0-2.14L18.4,3.46a1.51,1.51,0,0,0-2.13,0L14,5.75a6,6,0,0,0-3.46-.81l3.61-3.61a4.53,4.53,0,0,1,6.4,0l2.13,2.13A4.53,4.53,0,0,1,22.67,9.87ZM10,18.25,7.73,20.54a1.51,1.51,0,0,1-2.13,0L3.46,18.4a1.51,1.51,0,0,1,0-2.13l6.4-6.4a1.51,1.51,0,0,1,2.13,0L14.13,12l2.13-2.13L14.13,7.73a4.53,4.53,0,0,0-6.4,0l-6.4,6.4a4.53,4.53,0,0,0,0,6.4l2.13,2.13a4.53,4.53,0,0,0,6.4,0l3.61-3.61A6,6,0,0,1,10,18.25Z"/></g></g></svg>