<svg xmlns="http://www.w3.org/2000/svg" viewBox="0 0 64.4 64.07"><defs><style>.cls-1{fill:#f5821b;}</style></defs><title>Asset 1</title><g id="Layer_2" data-name="Layer 2"><g id="Layer_1-2" data-name="Layer 1"><path class="cls-1" d="M32.34,64c-9.14,0-18.29-.15-27.43.08-3.48.08-4.76-.53-4.89-4.5-.23-6.81,2.75-11,8.51-13.84,15.66-7.59,31.35-7.58,47.07-.17,6.44,3,9.45,7.87,8.71,15.19-.27,2.66-1,3.31-3.52,3.28C51.29,63.92,41.82,64,32.34,64Z"/><path class="cls-1" d="M48.16,16.2A16,16,0,1,1,32.52,0,16.06,16.06,0,0,1,48.16,16.2Z"/></g></g></svg>