<?xml version="1.0" encoding="utf-8"?>
<!-- Generator: Adobe Illustrator 21.1.0, SVG Export Plug-In . SVG Version: 6.00 Build 0)  -->
<svg version="1.1" id="Layer_1" xmlns="http://www.w3.org/2000/svg" xmlns:xlink="http://www.w3.org/1999/xlink" x="0px" y="0px"
	 viewBox="0 0 143.1 148" style="enable-background:new 0 0 143.1 148;" xml:space="preserve">
<style type="text/css">
	.st0{opacity:0.5;}
	.st1{fill:#00B4BE;}
</style>
<title>Asset 4</title>
<g id="_Group_" class="st0">
	<path id="_Compound_Path_" class="st1" d="M63.5,138.7C28.4,138.7-0.1,110.2,0,75.1s28.6-63.5,63.7-63.4
		c35.1,0.1,63.5,28.5,63.4,63.6C127.1,110.3,98.6,138.8,63.5,138.7C63.5,138.7,63.5,138.7,63.5,138.7z M114.4,74.8
		c-0.2-28.1-23.1-50.7-51.2-50.5S12.6,47.4,12.8,75.5c0.2,28,23,50.5,50.9,50.5c28.1-0.1,50.8-23,50.7-51.1
		C114.4,74.9,114.4,74.8,114.4,74.8L114.4,74.8z"/>
	<path id="_Path_" class="st1" d="M69.4,81.2H57.6V43.7h11.7V81.2z"/>
	<path id="_Path_2" class="st1" d="M57.6,94.6h11.7v11.9H57.6V94.6z"/>
</g>
</svg>
