<svg xmlns="http://www.w3.org/2000/svg" viewBox="0 0 25 25"><defs><style>.cls-1{fill:#fff;}</style></defs><title>Asset 7</title><g id="Layer_2" data-name="Layer 2"><g id="Layer_1-2" data-name="Layer 1"><path class="cls-1" d="M0,22.36A2.64,2.64,0,0,0,2.64,25H22.36A2.64,2.64,0,0,0,25,22.36V2.64A2.64,2.64,0,0,0,22.36,0H2.64A2.64,2.64,0,0,0,0,2.64Zm21-.16H4A1.2,1.2,0,0,1,2.8,21V18.17l4.09-4.09,3.49,3.49a.54.54,0,0,0,.76,0l6.31-6.31L22.2,16v5A1.2,1.2,0,0,1,21,22.2ZM4,2.8H21A1.2,1.2,0,0,1,22.2,4V14.48l-4.37-4.37a.54.54,0,0,0-.76,0l-6.31,6.31L7.27,12.93a.54.54,0,0,0-.76,0L2.8,16.64V4A1.2,1.2,0,0,1,4,2.8Z"/><path class="cls-1" d="M8.4,10.36A2.74,2.74,0,1,0,5.66,7.61,2.75,2.75,0,0,0,8.4,10.36Zm0-4.41A1.67,1.67,0,1,1,6.74,7.61,1.67,1.67,0,0,1,8.4,5.95Z"/></g></g></svg>