<svg xmlns="http://www.w3.org/2000/svg" viewBox="0 0 42.84 19.63"><defs><style>.cls-1{fill:#fff;}</style></defs><title>Asset 8</title><g id="Layer_2" data-name="Layer 2"><g id="Layer_1-2" data-name="Layer 1"><path class="cls-1" d="M16.24,4.09h2.49v.15q0,3.84,0,7.69a2.38,2.38,0,0,0,.07.62,1.28,1.28,0,0,0,1.47.94,1.32,1.32,0,0,0,1.24-1.37c0-.07,0-.15,0-.23q0-3.83,0-7.66V4.09H24s0,.08,0,.12c0,2.62,0,5.24,0,7.86a3.56,3.56,0,0,1-.85,2.42,3.46,3.46,0,0,1-2,1.12,4.74,4.74,0,0,1-2.86-.23,3.25,3.25,0,0,1-2-2.62,5,5,0,0,1-.06-.81q0-3.84,0-7.69Z"/><path class="cls-1" d="M35.13,11.86h2.36c0,.11,0,.21,0,.32a3.27,3.27,0,0,0,0,.47,1.11,1.11,0,0,0,.83.9,2.16,2.16,0,0,0,1.34,0,1.13,1.13,0,0,0,.77-1.06,1.15,1.15,0,0,0-.7-1.21c-.43-.2-.88-.36-1.32-.53a9.49,9.49,0,0,1-1.52-.67,3,3,0,0,1-1.49-2,3.28,3.28,0,0,1,1-3.31,3.4,3.4,0,0,1,1.91-.82,4.34,4.34,0,0,1,2.28.29A3.07,3.07,0,0,1,42.55,6.8c0,.27,0,.54.06.81H40.27c0-.18,0-.35,0-.53A1.24,1.24,0,0,0,38.81,6,1.66,1.66,0,0,0,38.5,6a1,1,0,0,0-.78.8,1,1,0,0,0,.4,1.1,2.36,2.36,0,0,0,.54.29l2,.79a4.16,4.16,0,0,1,1.11.67,2.81,2.81,0,0,1,1,1.84,4.08,4.08,0,0,1-.2,2,3.12,3.12,0,0,1-2,1.93,4.83,4.83,0,0,1-3.23,0,3.22,3.22,0,0,1-2.19-3.13C35.13,12.15,35.13,12,35.13,11.86Z"/><path class="cls-1" d="M31.16,15.53H28.67V6.3H26.23V4.09h7.36v2.2H31.16Z"/><path class="cls-1" d="M8.22,6.28l-.7-.7a.3.3,0,0,0-.18-.07h-1c-.1,0-.13,0-.13.13,0,.69,0,1.38,0,2.08,0,.05,0,.1,0,.18a1.8,1.8,0,0,0-1.78,0V5.5h-.6a1.69,1.69,0,0,0-.6,0c-.17.07-.3.26-.44.41l-.34.34L.8,4.61,2.47,2.94l.66.66a.32.32,0,0,0,.25.11H7.31a.3.3,0,0,0,.24-.1l.68-.68L9.89,4.6Z"/><path class="cls-1" d="M1.26,14.13,0,12.87l.06-.07L4.37,8.49a1.33,1.33,0,0,1,1.75-.16l.16.14L7.5,9.68l.06.07,0,.05L6.32,11l-1-1Z"/><path class="cls-1" d="M4.39,11.64l.94,1L9.42,8.51l1.27,1.27-.44.43L6.32,14.13a1.33,1.33,0,0,1-2,0L3.12,12.91Z"/><path class="cls-1" d="M5.32,17.65l1-1L7.54,18,7.48,18,6.31,19.2a1.33,1.33,0,0,1-2,0L3.13,18l1.26-1.26Z"/><path class="cls-1" d="M6.91,14.14l1,1,.94-.94,1.26,1.26L10,15.5,8.83,16.68a1.32,1.32,0,0,1-1.91,0L5.67,15.44l0,0,.63-.62Z"/><path class="cls-1" d="M2.8,15.12l.95-.95L5,15.44s0,0,0,0c-.45.45-.88.9-1.34,1.33a1.28,1.28,0,0,1-1.72,0c-.47-.43-.9-.91-1.34-1.35l1.25-1.24Z"/><path class="cls-1" d="M5.35,0,7,1.64,5.33,3.3,3.68,1.66Z"/><path class="cls-1" d="M1.24,11,0,9.75,1.24,8.52,2.47,9.75Z"/><path class="cls-1" d="M8.2,12.87l1.21-1.21,1.23,1.23L9.44,14.1Z"/></g></g></svg>