<svg id="Layer_1" data-name="Layer 1" xmlns="http://www.w3.org/2000/svg" viewBox="0 0 154.12 38.32"><defs><style>.cls-1{fill:#343434;}</style></defs><title>logo-uts-ftdi</title><path class="cls-1" d="M3.32,14.46H8.18v.29q0,7.51,0,15A4.65,4.65,0,0,0,8.33,31a2.5,2.5,0,0,0,2.87,1.84,2.57,2.57,0,0,0,2.43-2.68c0-.15,0-.29,0-.44q0-7.47,0-14.95v-.29h4.86c0,.08,0,.16,0,.24,0,5.11,0,10.23,0,15.34a7,7,0,0,1-1.65,4.72A6.75,6.75,0,0,1,13,36.94a9.26,9.26,0,0,1-5.58-.46,6.34,6.34,0,0,1-4-5.11,9.76,9.76,0,0,1-.12-1.57q0-7.51,0-15Z" transform="translate(-3.32 -4.3)"/><path class="cls-1" d="M40.19,29.65h4.6c0,.21,0,.42,0,.62a6.38,6.38,0,0,0,.07.92,2.16,2.16,0,0,0,1.62,1.75,4.21,4.21,0,0,0,2.61,0,2.2,2.2,0,0,0,1.51-2.06,2.25,2.25,0,0,0-1.37-2.36c-.84-.39-1.72-.7-2.58-1a18.52,18.52,0,0,1-3-1.31,5.8,5.8,0,0,1-2.9-3.87,6.41,6.41,0,0,1,2-6.47,6.64,6.64,0,0,1,3.74-1.6,8.47,8.47,0,0,1,4.46.56,6,6,0,0,1,3.73,5c.07.52.07,1,.11,1.59H50.22c0-.34,0-.69-.05-1a2.42,2.42,0,0,0-2.8-2.19,3.25,3.25,0,0,0-.6.11,2,2,0,0,0-1.52,1.56A2,2,0,0,0,46,21.94a4.61,4.61,0,0,0,1.06.57c1.31.53,2.63,1,3.94,1.55a8.12,8.12,0,0,1,2.17,1.31,5.49,5.49,0,0,1,2,3.6,8,8,0,0,1-.4,4,6.09,6.09,0,0,1-4,3.76,9.43,9.43,0,0,1-6.31-.1,6.3,6.3,0,0,1-4.28-6.11C40.19,30.21,40.19,29.94,40.19,29.65Z" transform="translate(-3.32 -4.3)"/><path class="cls-1" d="M32.43,36.8H27.57v-18H22.81V14.46H37.18v4.3H32.43Z" transform="translate(-3.32 -4.3)"/><path class="cls-1" d="M78.58,16.55c-.45-.45-.9-.92-1.37-1.36a.58.58,0,0,0-.35-.15c-.63,0-1.27,0-1.9,0-.2,0-.26.05-.26.26,0,1.35,0,2.7,0,4.05,0,.1,0,.2,0,.35a3.52,3.52,0,0,0-3.48,0V15H70a3.29,3.29,0,0,0-1.17,0c-.34.14-.58.52-.86.79l-.66.67L64.1,13.29,67.36,10c.41.41.86.85,1.29,1.29a.62.62,0,0,0,.49.21H76.8a.59.59,0,0,0,.47-.2c.44-.45.89-.89,1.32-1.32l3.26,3.26Z" transform="translate(-3.32 -4.3)"/><path class="cls-1" d="M65,31.89l-2.46-2.46.12-.13,8.41-8.42a2.59,2.59,0,0,1,3.41-.32,2.67,2.67,0,0,1,.31.27l2.38,2.38.12.14-.09.1-2.34,2.33L73,23.89Z" transform="translate(-3.32 -4.3)"/><path class="cls-1" d="M71.11,27l1.84,1.86,8-8,2.47,2.47-.86.84-7.65,7.65a2.59,2.59,0,0,1-3.85,0l-2.41-2.39Z" transform="translate(-3.32 -4.3)"/><path class="cls-1" d="M72.92,38.75l1.86-1.86,2.48,2.48-.11.13-2.29,2.28a2.59,2.59,0,0,1-3.81,0l-2.39-2.39,2.46-2.46Z" transform="translate(-3.32 -4.3)"/><path class="cls-1" d="M76,31.91l1.88,1.89L79.74,32l2.46,2.47-.12.14-2.3,2.3a2.58,2.58,0,0,1-3.74,0l-2.43-2.43-.05-.09,1.23-1.2Z" transform="translate(-3.32 -4.3)"/><path class="cls-1" d="M68,33.8l1.85-1.85,2.48,2.48s0,0,0,0c-.87.87-1.72,1.76-2.62,2.6a2.49,2.49,0,0,1-3.35,0c-.92-.84-1.76-1.77-2.62-2.64L66.19,32Z" transform="translate(-3.32 -4.3)"/><path class="cls-1" d="M73,4.3l3.21,3.2-3.25,3.25L69.73,7.53Z" transform="translate(-3.32 -4.3)"/><path class="cls-1" d="M65,25.74l-2.41-2.41L65,20.94l2.4,2.4Z" transform="translate(-3.32 -4.3)"/><path class="cls-1" d="M78.56,29.42l2.37-2.37,2.4,2.41L81,31.83Z" transform="translate(-3.32 -4.3)"/><path class="cls-1" d="M96.44,37.18H91.58V13.9h13.34v4H96.44v6h7.9v4h-7.9Z" transform="translate(-3.32 -4.3)"/><path class="cls-1" d="M118.46,37.18h-4.94V18H107.2V13.9h17.58V18h-6.32Z" transform="translate(-3.32 -4.3)"/><path class="cls-1" d="M147.68,25.32q0,5.75-3.27,8.81T135,37.18h-6.59V13.9h7.31q5.7,0,8.85,3T147.68,25.32Zm-5.13.13q0-7.5-6.62-7.5H133.3V33.11h2.12Q142.55,33.11,142.55,25.45Z" transform="translate(-3.32 -4.3)"/><path class="cls-1" d="M152.5,37.18V13.9h4.94V37.18Z" transform="translate(-3.32 -4.3)"/></svg>